<svg id="Icons" xmlns="http://www.w3.org/2000/svg" viewBox="0 0 80 80"><title>VW_Icon_Internet_L</title><path d="M40,13C24.36,13,13,24.35,13,40S24.36,67,40,67,67,55.64,67,40,55.64,13,40,13Zm24,25.5H55.29A44,44,0,0,0,54,28.67a25.3,25.3,0,0,0-5.9-11.44C57.2,20.18,63.41,28.18,64,38.49ZM38.49,16.67V38.51H27.71a41.55,41.55,0,0,1,1.23-9.09C30.78,22.3,34.36,17.6,38.49,16.67Zm0,24.84V63.33C32.58,62,28.06,53,27.69,41.51Zm3,21.81V41.5H52.31C51.94,53,47.43,62,41.51,63.32Zm0-24.82V16.67c4.14.92,7.72,5.62,9.57,12.75a41.46,41.46,0,0,1,1.23,9.08ZM31.94,17.23A25.4,25.4,0,0,0,26,28.67a44.69,44.69,0,0,0-1.32,9.84H16C16.58,28.19,22.8,20.19,31.94,17.23ZM16.05,41.52h8.64c.27,9.23,3,16.92,7.21,21.23C22.79,59.78,16.6,51.81,16.05,41.52Zm32,21.22c4.19-4.31,6.95-12,7.22-21.24H64C63.41,51.8,57.21,59.78,48.09,62.74Z"/></svg>