<svg id="Icons" xmlns="http://www.w3.org/2000/svg" viewBox="0 0 80 80"><title>VW_Icon_Calender_L_Active</title><path d="M64,10V7.59a3.5,3.5,0,0,0-3.5-3.5H55.59a3.5,3.5,0,0,0-3.5,3.5V10h-24V7.59a3.5,3.5,0,0,0-3.5-3.5H19.61a3.5,3.5,0,0,0-3.5,3.5V10H4L4,24.89H76l0-14.92Zm-39,6.61a.5.5,0,0,1-.5.5H19.61a.51.51,0,0,1-.5-.5v-9a.51.51,0,0,1,.5-.5h4.94a.5.5,0,0,1,.5.5Zm36,0a.51.51,0,0,1-.5.5H55.59a.51.51,0,0,1-.5-.5v-9a.51.51,0,0,1,.5-.5h4.92a.51.51,0,0,1,.5.5Z"/><path d="M3.88,63.39A10.66,10.66,0,0,0,14.53,74H65.3A10.66,10.66,0,0,0,76,63.4L76,27.89H4ZM40,52.41l7.37-16.52h3.3l-7.06,16V52h8.3V43h3.26v9h3.48v2.94H55.17V60H51.91V54.89H40Zm-11.48-17c4.64,0,8.15,3,8.15,7.55,0,3.12-1.6,5.18-3.83,7.31l-7,6.77v.07h11.1V60H21.25V57.41l8.93-8.9c1.6-1.59,3.12-3.22,3.12-5.6a4.42,4.42,0,0,0-4.78-4.53,8,8,0,0,0-5.82,2.26l-1.52-2.26A10.55,10.55,0,0,1,28.52,35.36Z"/></svg>