<svg id="Icons" xmlns="http://www.w3.org/2000/svg" viewBox="0 0 80 80"><title>VW_Icon_Bluetooth_S</title><path d="M56.89,27.08C54.84,20.27,50.13,17,42.5,17S30.16,20.27,28.11,27.08A35.86,35.86,0,0,0,27,36.54a46.45,46.45,0,0,0,.24,4.85l2-.21A45.32,45.32,0,0,1,29,36.54a33.82,33.82,0,0,1,1-8.89C31.81,21.72,35.77,19,42.5,19S53.19,21.72,55,27.65a33.82,33.82,0,0,1,1,8.89,33.78,33.78,0,0,1-1,8.89c-1.78,5.93-5.74,8.7-12.47,8.7v2c7.63,0,12.34-3.31,14.39-10.12A35.93,35.93,0,0,0,58,36.54,35.86,35.86,0,0,0,56.89,27.08Z"/><path d="M26.87,53.76a2.91,2.91,0,0,0,1.27-2.59C28.14,49.06,26.75,48,24,48H20V60h4.65c2.49,0,4-1.25,4-3.34A3,3,0,0,0,26.87,53.76Zm-.26,2.77c0,1.15-.64,1.64-2.13,1.64H22v-3.3h2.48C26,54.87,26.61,55.35,26.61,56.53ZM22,53.05V49.8H23.9c1.69,0,2.21.38,2.21,1.63s-.54,1.62-2.21,1.62Z"/><polygon points="29.22 49.8 32.63 49.8 32.63 59.99 34.6 59.99 34.6 49.8 37.99 49.8 37.99 47.99 29.22 47.99 29.22 49.8"/><path d="M48,43.32a1.53,1.53,0,0,0,.46-1.11A1.55,1.55,0,0,0,48,41.1l-4.64-4.6L48,31.82a1.58,1.58,0,0,0,.45-1.11A1.51,1.51,0,0,0,48,29.64l-4.75-5.22a1.3,1.3,0,0,0-1.42-.33,1.28,1.28,0,0,0-.82,1.2v8.9l-4.79-4.77L34.8,30.84l5.7,5.66-5.71,5.75,1.42,1.41L41,38.83v8.89a1.28,1.28,0,0,0,.83,1.2,1.25,1.25,0,0,0,1.41-.34ZM43,27.14l3.26,3.57L43,34ZM43,39l3.26,3.23L43,45.85Z"/></svg>