<svg id="Icons" xmlns="http://www.w3.org/2000/svg" viewBox="0 0 80 80"><title>VW_Icon_Repeat_L_Active</title><path d="M21.91,45.62,26.32,50H18.85C13.1,50,10,44.87,10,40.05s3.1-10,8.85-10H37V23H18.85C10,23,3,30.49,3,40.05S9.81,57,18.85,57h7.47l-4.41,4.36,4.22,4.27L37,54.85a2,2,0,0,0,0-2.81L26.13,41.35Z"/><path d="M61.07,23h-7.5l4.52-4.47-4.22-4.27L43,25a2,2,0,0,0,0,2.8l10.81,10.7,4.22-4.27L53.78,30h7.29c5.75,0,8.85,5.18,8.85,10S66.82,50,61.07,50H43v7h18c9,0,15.85-7.28,15.85-16.94S70,23,61.07,23Z"/></svg>