<svg id="Icons" xmlns="http://www.w3.org/2000/svg" viewBox="0 0 80 80"><title>VW_Icon_Car_L</title><path d="M80,25.65H71.79l-5.89-10-.06-.1a10,10,0,0,0-8-4.63C54.12,10.45,46.56,10,40,10a161,161,0,0,0-17.83.87c-3.69.51-6,1.85-7.93,4.66l-6,10.12H0v2.87l5.81,1.17-4.22,7C0,39.15,0,41.93,0,44.38V67.12A3.87,3.87,0,0,0,3.88,71h9.44a3.88,3.88,0,0,0,3.87-3.88v-2.8c3.65.22,13,.72,22.89.72s19.1-.5,22.73-.72v2.8A3.87,3.87,0,0,0,66.67,71h9.48A3.88,3.88,0,0,0,80,67.12V44.38c0-2.45,0-5.22-1.58-7.68l-4.26-7L80,28.52ZM16.73,17.19c1.46-2.08,3-3,5.84-3.34A156.15,156.15,0,0,1,40,13c6.45,0,13.86.44,17.56.85a7,7,0,0,1,5.79,3.32l6,10.29a63.44,63.44,0,0,1-8.49.73H19.16a79.45,79.45,0,0,1-8.56-.64ZM4.45,37.78,17.8,41.45l.83,3.31-5.27,1.06L3,44.18c0-2.07,0-4.2,1.13-5.91ZM76.15,68H66.67a.88.88,0,0,1-.86-.88v-6l-1.61.11c-.11,0-11.68.82-24.12.82s-24.17-.81-24.29-.82l-1.6-.11v6a.88.88,0,0,1-.87.88H3.88A.88.88,0,0,1,3,67.12V47.22l10.41,1.65,8.86-1.79L21.78,45H35.19a5,5,0,0,0,9.65,0H58.26l-.52,2.08,8.86,1.79L77,47.22v19.9A.88.88,0,0,1,76.15,68ZM38,43.71a2,2,0,1,1,2,2A1.9,1.9,0,0,1,38,43.71Zm37.86-5.43,0,0C77,40,77,42.11,77,44.18L66.67,45.82l-5.26-1.06.82-3.31,13.35-3.67ZM74,35.12,59.74,39,59,42H44.72a5,5,0,0,0-9.41,0H21l-.74-3L6.06,35.12l2.87-4.76a86.58,86.58,0,0,0,10.23.83H60.88a68.6,68.6,0,0,0,10-.93v.09l.14,0Z"/></svg>