<svg id="Icons" xmlns="http://www.w3.org/2000/svg" viewBox="0 0 80 80"><title>VW_Icon_User_L_Active</title><path d="M76.45,69.84l-2.8-17.16c-.63-3.64-2.12-5.9-5-7.54l-15.2-6.81c-.39.32-.8.62-1.22.91h0A20.92,20.92,0,0,1,40,43a21,21,0,0,1-12.16-3.68h0c-.46-.32-.91-.66-1.34-1l-15,6.81-.13.06C8.47,46.78,7,49,6.35,52.69L3.55,69.84a3.52,3.52,0,0,0,.68,2.77,3.41,3.41,0,0,0,2.43,1.3c1.82.15,4.52.3,7.8.46l2.37-13.83,3,.51L17.48,74.5l4.49.16L39.9,75H40l17.55-.35c1.79-.06,3.5-.12,5.11-.19l-2.3-13.44,3-.51,2.37,13.82c3.21-.15,5.85-.3,7.66-.45a3.41,3.41,0,0,0,2.43-1.3A3.52,3.52,0,0,0,76.45,69.84Z"/><circle cx="40" cy="22.49" r="16"/></svg>