<svg id="Icons" xmlns="http://www.w3.org/2000/svg" viewBox="0 0 80 80"><title>VW_Icon_Sound_L</title><path d="M47.44,52H31.56A3.57,3.57,0,0,0,28,55.56v3.88A3.57,3.57,0,0,0,31.56,63H38V73h3V63h6.44A3.57,3.57,0,0,0,51,59.44V55.56A3.57,3.57,0,0,0,47.44,52ZM48,59.44a.56.56,0,0,1-.56.56H31.56a.56.56,0,0,1-.56-.56V55.56a.56.56,0,0,1,.56-.56H47.44a.56.56,0,0,1,.56.56Z"/><path d="M21.44,36H5.56A3.57,3.57,0,0,0,2,39.56v3.88A3.57,3.57,0,0,0,5.56,47H12V73h3V47h6.44A3.57,3.57,0,0,0,25,43.44V39.56A3.57,3.57,0,0,0,21.44,36ZM22,43.44a.56.56,0,0,1-.56.56H5.56A.56.56,0,0,1,5,43.44V39.56A.56.56,0,0,1,5.56,39H21.44a.56.56,0,0,1,.56.56Z"/><rect x="38" y="7" width="3" height="38.99"/><rect x="12" y="7" width="3" height="22.99"/><rect x="64" y="7" width="3" height="10.98"/><path d="M73.44,24H57.56A3.57,3.57,0,0,0,54,27.56v3.88A3.57,3.57,0,0,0,57.56,35H64V73h3V35h6.44A3.57,3.57,0,0,0,77,31.44V27.56A3.57,3.57,0,0,0,73.44,24ZM74,31.44a.56.56,0,0,1-.56.56H57.56a.56.56,0,0,1-.56-.56V27.56a.56.56,0,0,1,.56-.56H73.44a.56.56,0,0,1,.56.56Z"/></svg>