<svg id="Icons" xmlns="http://www.w3.org/2000/svg" viewBox="0 0 80 80"><title>VW_Icon_AC_S</title><path d="M55.94,32a4.12,4.12,0,0,0-4.78,3.3L48,47c-.12.46-.62.94-1,.94H40a4.38,4.38,0,0,0-3.33,1.17l-7.69,8,1.44,1.39,7.67-7.94A2.46,2.46,0,0,1,40,50h7A3.23,3.23,0,0,0,50,47.53l3.13-11.72A2.2,2.2,0,0,1,55.65,34a2.46,2.46,0,0,1,1.68.81,2.53,2.53,0,0,1,.28,1.9c-.3,2-2.13,9-3.07,12.25-.75,2.66-2.24,4-4.4,4h-8a4.21,4.21,0,0,0-3,1.31l-6.51,6.57L34,62.25l6.5-6.57a2.23,2.23,0,0,1,1.6-.72h8c3.08,0,5.33-1.94,6.33-5.46.68-2.39,2.76-10.08,3.12-12.5a4.37,4.37,0,0,0-.66-3.39A4.31,4.31,0,0,0,55.94,32Z"/><path d="M25.77,31.31l-4.46-7.48A20.3,20.3,0,0,1,33.71,20a20.59,20.59,0,0,1,12,3.54l-4.47,7.82,1.74,1L48.3,23l-.68-.54A22.34,22.34,0,0,0,33.71,18a22.1,22.1,0,0,0-14.35,4.86l-.66.54,5.35,9Z"/><path d="M29,36a5.63,5.63,0,0,0,1.61-3.61,6.48,6.48,0,0,0-.92-2.7,6.56,6.56,0,0,1-.91-2.56,4.12,4.12,0,0,1,1.34-2.74l-.66-.76-.65-.75a6.14,6.14,0,0,0-2,4.25,8.07,8.07,0,0,0,1.12,3.46,5.82,5.82,0,0,1,.71,1.8,3.72,3.72,0,0,1-1,2.21Z"/><path d="M33.71,36a5.69,5.69,0,0,0,1.6-3.61,6.48,6.48,0,0,0-.92-2.7,6.56,6.56,0,0,1-.91-2.56,4.12,4.12,0,0,1,1.34-2.74l-.66-.76-.65-.75a6.14,6.14,0,0,0-2,4.25,8.07,8.07,0,0,0,1.12,3.46,5.58,5.58,0,0,1,.71,1.8,3.72,3.72,0,0,1-1,2.21Z"/><path d="M38.37,36A5.69,5.69,0,0,0,40,32.38a6.48,6.48,0,0,0-.92-2.7,6.56,6.56,0,0,1-.91-2.56,4.12,4.12,0,0,1,1.34-2.74l-.66-.76-.65-.75a6.14,6.14,0,0,0-2,4.25,8,8,0,0,0,1.13,3.46,5.75,5.75,0,0,1,.7,1.8,3.72,3.72,0,0,1-1,2.21Z"/><path d="M33,47.44V46H29v-7H27v9h2.63l-4.33,4.36a.46.46,0,0,1-.32.13h0a.47.47,0,0,1-.33-.14L20.35,48H23v-9H21v7H18l-1,.06V47.5l6.24,6.28a2.43,2.43,0,0,0,1.76.74h0a2.43,2.43,0,0,0,1.75-.73l6-6Z"/><path d="M56.5,21.5A4.5,4.5,0,1,0,61,26,4.42,4.42,0,0,0,56.5,21.5Zm0,7A2.5,2.5,0,1,1,59,26,2.42,2.42,0,0,1,56.5,28.5Z"/></svg>