<svg id="Icons" xmlns="http://www.w3.org/2000/svg" viewBox="0 0 80 80"><title>VW_Icon_Media_S</title><path d="M49.71,37.84,35.55,29.68a2.39,2.39,0,0,0-2.4,0A2.14,2.14,0,0,0,32,31.54V48.46a2.14,2.14,0,0,0,1.11,1.87,2.41,2.41,0,0,0,1.19.32,2.33,2.33,0,0,0,1.2-.33l14.17-8.16A2.55,2.55,0,0,0,51,40,2.59,2.59,0,0,0,49.71,37.84Zm-1,2.59L34.53,48.59a.36.36,0,0,1-.39,0,.17.17,0,0,1-.1-.13V31.54a.17.17,0,0,1,.1-.13.39.39,0,0,1,.2-.06.41.41,0,0,1,.2.06L48.7,39.57A.62.62,0,0,1,49,40,.58.58,0,0,1,48.71,40.43Z"/><path d="M40,18c-12.75,0-22,9.25-22,22s9.25,22,22,22,22-9.25,22-22S52.75,18,40,18Zm0,42c-11.59,0-20-8.41-20-20s8.41-20,20-20,20,8.41,20,20S51.59,60,40,60Z"/></svg>