<svg id="Icons" xmlns="http://www.w3.org/2000/svg" viewBox="0 0 80 80"><title>VW_Icon_Sound_M</title><rect x="39" y="15" width="2" height="29.95"/><path d="M25.44,37H14.56A2.56,2.56,0,0,0,12,39.57v2.85A2.57,2.57,0,0,0,14.56,45H19V65h2V45h4.44A2.57,2.57,0,0,0,28,42.42V39.57A2.56,2.56,0,0,0,25.44,37ZM26,42.42a.57.57,0,0,1-.56.57H14.56a.57.57,0,0,1-.56-.57V39.57a.56.56,0,0,1,.56-.56H25.44a.56.56,0,0,1,.56.56Z"/><rect x="19" y="15" width="2" height="17.95"/><rect x="59" y="15" width="2" height="9"/><path d="M45.42,49H34.54A2.56,2.56,0,0,0,32,51.6v2.85A2.57,2.57,0,0,0,34.54,57H39v8h2V57h4.42A2.57,2.57,0,0,0,48,54.45V51.6A2.56,2.56,0,0,0,45.42,49ZM46,54.45a.57.57,0,0,1-.56.57H34.54a.57.57,0,0,1-.56-.57V51.6a.56.56,0,0,1,.56-.56H45.42a.56.56,0,0,1,.56.56Z"/><path d="M65.43,28H54.56A2.57,2.57,0,0,0,52,30.57v2.86A2.57,2.57,0,0,0,54.56,36H59V65h2V36h4.43A2.57,2.57,0,0,0,68,33.43V30.57A2.57,2.57,0,0,0,65.43,28ZM66,33.43a.57.57,0,0,1-.57.56H54.56a.57.57,0,0,1-.57-.56V30.57a.57.57,0,0,1,.57-.56H65.43a.57.57,0,0,1,.57.56Z"/></svg>