<svg id="Icons" xmlns="http://www.w3.org/2000/svg" viewBox="0 0 80 80"><title>VW_Icon_Settings_S</title><path d="M60.68,39.64,56.25,38a17.29,17.29,0,0,0-.94-4.67L58.48,30a1.28,1.28,0,0,0,.07-1.67L54.84,23.7a1.28,1.28,0,0,0-1.64-.3l-3.85,2.28a15.92,15.92,0,0,0-4.48-2l-.63-4.57A1.28,1.28,0,0,0,43,18H37a1.28,1.28,0,0,0-1.26,1.1l-.62,4.57a16,16,0,0,0-4.47,2l-3.85-2.29a1.28,1.28,0,0,0-1.64.3l-3.72,4.64A1.27,1.27,0,0,0,21.54,30l3.16,3.3A17.38,17.38,0,0,0,23.75,38l-4.42,1.66a1.27,1.27,0,0,0-.8,1.47l1.33,5.79a1.27,1.27,0,0,0,1.35,1l4.49-.39a15.24,15.24,0,0,0,3.06,3.92l-1.37,4.2a1.29,1.29,0,0,0,.66,1.54l5.37,2.58A1.29,1.29,0,0,0,35,59.26l2.59-3.91a17.5,17.5,0,0,0,4.74,0L45,59.27a1.29,1.29,0,0,0,1.61.44l5.37-2.57a1.27,1.27,0,0,0,.66-1.54l-1.36-4.2a15.07,15.07,0,0,0,3.06-3.92l4.5.4a1.26,1.26,0,0,0,1.35-1l1.33-5.78A1.29,1.29,0,0,0,60.68,39.64Zm-2.35,6.19-5.22-.46-.3.62a12.92,12.92,0,0,1-3.38,4.32l-.52.43,1.58,4.87-4.22,2-3-4.44-.64.1a16.19,16.19,0,0,1-5.38,0l-.63-.11-3,4.45-4.22-2,1.59-4.87-.52-.43A13,13,0,0,1,27.18,46l-.3-.62-5.22.47-1-4.55,5.08-1.9,0-.67a15.5,15.5,0,0,1,1.06-5.27l.24-.6-3.6-3.76,2.92-3.64,4.42,2.62.53-.38a13.83,13.83,0,0,1,5-2.22l.67-.16L37.66,20h4.68l.73,5.29.67.16a13.82,13.82,0,0,1,5,2.23l.53.38,4.42-2.62,2.92,3.65L53,32.85l.24.6a15.17,15.17,0,0,1,1.06,5.27l0,.67,5.07,1.9Z"/><path d="M40,30a9.19,9.19,0,0,0-9.5,9.5A9.19,9.19,0,0,0,40,49a9.19,9.19,0,0,0,9.5-9.5A9.19,9.19,0,0,0,40,30Zm0,17a7.17,7.17,0,0,1-7.5-7.5A7.17,7.17,0,0,1,40,32a7.17,7.17,0,0,1,7.5,7.5A7.17,7.17,0,0,1,40,47Z"/></svg>