<svg id="Icons" xmlns="http://www.w3.org/2000/svg" viewBox="0 0 80 80"><title>VW_Icon_Bluetooth_L</title><path d="M54.18,43.77a2.31,2.31,0,0,0,.69-1.65,2.29,2.29,0,0,0-.69-1.65L47.47,33.8,54.19,27a2.32,2.32,0,0,0,.68-1.65,2.28,2.28,0,0,0-.64-1.58l-6.92-7.6A1.92,1.92,0,0,0,44,17.48V30.33l-6.91-6.86L35,25.59l8.26,8.22L35,42.13l2.13,2.12,6.9-7V50.14a1.91,1.91,0,0,0,3.33,1.28ZM47,20.29l4.63,5.08L47,30Zm0,17.26,4.63,4.6L47,47.3Z"/><path d="M18.21,63.65a4.65,4.65,0,0,0,2.45-4.43c0-3.51-2.26-5.21-6.91-5.21H7V74h7.83C19,74,21.52,72,21.52,68.53A4.76,4.76,0,0,0,18.21,63.65ZM10,65.31h4.51c2.74,0,3.91.9,3.91,3s-1.2,3-3.88,3H10Zm3.53-2.69H10V56.69h3.53c3.05,0,4,.72,4,3C17.57,62.14,16.09,62.62,13.54,62.62Z"/><polygon points="23 56.69 28.95 56.69 29.01 74.01 31.99 74.01 31.99 56.69 38 56.69 38 54.01 23 54.01 23 56.69"/><path d="M69.24,17.78C66,6.49,58.56,1,46.47,1S26.94,6.49,23.7,17.78C22.18,23.11,22,29.92,22,33.5c0,.6,0,1.22,0,1.86l0,.76c0,.39,0,.8,0,1.2l.06,1c0,.34,0,.69.06,1,0,.19,0,.37,0,.56l0,.55c0,.32.05.64.08,1l.07.72h0c.16,1.49.37,2.89.62,4.16L26,45.74c-.26-1.35-.48-2.86-.64-4.48l0-.22c0-.28-.05-.55-.07-.82l-.09-1.07-.06-1,0-1c0-.39,0-.77,0-1.16l0-.73c0-.62,0-1.22,0-1.8,0-3.42.21-9.92,1.64-14.9C29.44,8.64,35.76,4,46.47,4s17,4.64,19.89,14.6c1.43,5,1.64,11.48,1.64,14.9,0,.58,0,1.18,0,1.8l0,.76c0,.37,0,.75,0,1.13l-.06,1c0,.31,0,.62,0,.93l-.09,1.07c0,.21,0,.42,0,.64l0,.4a41.63,41.63,0,0,1-1.27,7.14C63.51,58.36,57.19,63,46.47,63v3C58.56,66,66,60.51,69.24,49.22A43.41,43.41,0,0,0,70.57,42l.06-.58c0-.33.06-.65.08-1l.05-.55c0-.19,0-.37,0-.55l.06-1,.06-1.06c0-.4,0-.79,0-1.17l0-.79c0-.64,0-1.26,0-1.86C71,29.92,70.77,23.11,69.24,17.78ZM69,41.28v0l.15,0Z"/></svg>