<svg id="Icons" xmlns="http://www.w3.org/2000/svg" viewBox="0 0 80 80"><title>VW_Icon_Media_L</title><path d="M40,3C18.56,3,3,18.56,3,40S18.56,77,40,77,77,61.44,77,40,61.44,3,40,3Zm0,71C20.3,74,6,59.7,6,40S20.3,6,40,6,74,20.3,74,40,59.7,74,40,74Z"/><path d="M56.77,37,32.64,22.51a3.78,3.78,0,0,0-3.83-.05,3.48,3.48,0,0,0-1.81,3v29a3.48,3.48,0,0,0,1.81,3,3.82,3.82,0,0,0,3.83,0L56.77,43a3.46,3.46,0,0,0,0-6Zm-1.54,3.42L31.09,54.92a.79.79,0,0,1-.8,0A.5.5,0,0,1,30,54.5v-29a.5.5,0,0,1,.29-.43.79.79,0,0,1,.4-.11.77.77,0,0,1,.4.12l24.14,14.5a.47.47,0,0,1,0,.85Z"/></svg>