<svg id="Icons" xmlns="http://www.w3.org/2000/svg" viewBox="0 0 80 80"><title>VW_Icon_Seat_S</title><path d="M55.13,18a26.67,26.67,0,0,0-5.22,1.74A1.94,1.94,0,0,0,48.6,22a38.8,38.8,0,0,1,.14,5.6l2.31.08c0,.87,0,1.75,0,2.62l-2.62.41a36.4,36.4,0,0,1-6.13,16.14L44.49,48c-.3.47-.6.93-.93,1.39l-1-.16a82.19,82.19,0,0,0-13.27-1.08c-.81,0-1.61,0-2.42,0l-1.86.05c-2.12.06-2.58.58-2.17,2.68a18.45,18.45,0,0,0,3.41,7.81l.2.27H47.13A49.15,49.15,0,0,0,55.13,18Zm-9,39H27.52a16.55,16.55,0,0,1-2.68-6.45c0-.11,0-.21-.05-.29l.32,0L27,50.19c.78,0,1.58,0,2.36,0a80.78,80.78,0,0,1,13,1.05l.63.11.33,0,1.23.2.72-1c.35-.49.69-1,1-1.5l1.13-1.82-1.91-1-.23-.12a38,38,0,0,0,5-13.63l1.16-.18L53,32l0-1.67c0-.91,0-1.83,0-2.74L53,25.76l-1.86-.06h-.34a38.71,38.71,0,0,0-.19-3.87,1.16,1.16,0,0,1,0-.17l.16-.08a22.19,22.19,0,0,1,2.9-1.11A47,47,0,0,1,46.1,57Z"/></svg>