<svg id="Icons" xmlns="http://www.w3.org/2000/svg" viewBox="0 0 80 80"><title>VW_Icon_Fuel_M</title><path d="M60,37V53.51a2.49,2.49,0,0,1-.73,1.77A2.46,2.46,0,0,1,57.5,56h0a2.51,2.51,0,0,1-2.5-2.5V37.61A3.6,3.6,0,0,0,51.4,34H48V18.66C48,13.59,44.36,13,41.62,13c-5.8-.12-12.45-.12-18.22,0-2.75,0-6.4.59-6.4,5.66V64.91H48V36h3.4a1.6,1.6,0,0,1,1.6,1.6V53.52A4.52,4.52,0,0,0,57.5,58h0A4.49,4.49,0,0,0,62,53.51V37ZM46,62.91H19V18.66C19,16,20.15,15,23.42,15c5.77-.12,12.39-.12,18.16,0h0C44.85,15,46,16,46,18.66Z"/><path d="M59,34h1.13v0H62V19.09a9.23,9.23,0,0,0-2.06-6.19l-1.45,1.38A7.35,7.35,0,0,1,60,19.09V22H59a4,4,0,0,0-4,4v4A4,4,0,0,0,59,34Zm-2-8a2,2,0,0,1,2-2h1v8H59a2,2,0,0,1-2-2Z"/><path d="M22,36H43V20H22Zm2-14H41V34H24Z"/></svg>