<svg id="Icons" xmlns="http://www.w3.org/2000/svg" viewBox="0 0 80 80"><defs><style>.cls-1{fill:#1d1d1b;}</style></defs><title>VW_Icon_Energy_M</title><polygon class="cls-1" points="34.43 22.75 33.8 22 27.06 31.14 32.02 35.93 30.91 43.59 31.76 44.03 37.98 34.51 33.15 29.72 34.43 22.75"/><path class="cls-1" d="M65,21V16H63v5H59V16H57v5H55v3.56C55,28.35,57.47,31,61,31s6-2.64,6-6.43V21Zm0,3.56C65,27.25,63.43,29,61,29s-4-1.74-4-4.43V23h8Z"/><path class="cls-1" d="M60,53.51a2.49,2.49,0,0,1-.73,1.77A2.46,2.46,0,0,1,57.5,56h0a2.51,2.51,0,0,1-2.5-2.5V37.61A3.6,3.6,0,0,0,51.4,34H48V18.66C48,13.59,44.36,13,41.62,13c-5.8-.12-12.45-.12-18.22,0-2.75,0-6.4.59-6.4,5.66V64.91H48V36h3.4a1.6,1.6,0,0,1,1.6,1.6V53.52A4.52,4.52,0,0,0,57.5,58h0A4.49,4.49,0,0,0,62,53.51V34H60Zm-14,9.4H19V18.66C19,16,20.15,15,23.42,15c5.77-.12,12.39-.12,18.16,0h0C44.85,15,46,16,46,18.66Z"/></svg>