<svg id="Icons" xmlns="http://www.w3.org/2000/svg" viewBox="0 0 80 80"><title>VW_Icon_Settings_M</title><path d="M70.1,41l-6.76-2.57a25.53,25.53,0,0,0-1.47-7.37L66.71,26a1.4,1.4,0,0,0,.08-1.83l-5.43-6.87a1.39,1.39,0,0,0-1.81-.34l-5.89,3.53a22.7,22.7,0,0,0-7-3.16l-1-7.08A1.41,1.41,0,0,0,44.36,9H35.64a1.4,1.4,0,0,0-1.38,1.21l-1,7.08a22.68,22.68,0,0,0-6.94,3.15L20.48,16.9a1.4,1.4,0,0,0-1.81.33L13.23,24.1a1.4,1.4,0,0,0,.08,1.83L18.14,31a25.46,25.46,0,0,0-1.47,7.37L9.91,41A1.4,1.4,0,0,0,9,42.59L11,51.15a1.41,1.41,0,0,0,1.49,1.09l6.88-.62a21.52,21.52,0,0,0,4.75,6.16L22,64.3A1.41,1.41,0,0,0,22.71,66l7.85,3.82a1.41,1.41,0,0,0,1.78-.49l4-6a25.35,25.35,0,0,0,7.38,0l4,6A1.4,1.4,0,0,0,48.8,70a1.47,1.47,0,0,0,.61-.14L57.26,66A1.41,1.41,0,0,0,58,64.32L55.9,57.8a21.61,21.61,0,0,0,4.75-6.15l6.88.62A1.39,1.39,0,0,0,69,51.18L71,42.62A1.4,1.4,0,0,0,70.1,41Zm-2.92,9.23-7.71-.7-.31.62a19.52,19.52,0,0,1-5.06,6.56l-.52.43,2.35,7.3L49,67.79l-4.37-6.67-.64.1a23.73,23.73,0,0,1-8,0l-.64-.11L31,67.78l-6.91-3.36,2.35-7.29-.51-.43a19.56,19.56,0,0,1-5.06-6.57l-.3-.62-7.72.69L11.1,42.66l7.51-2.85,0-.67a23.31,23.31,0,0,1,1.59-8l.24-.6-5.35-5.65,4.79-6,6.54,3.94.54-.39a20.5,20.5,0,0,1,7.44-3.37l.67-.15L36.17,11h7.66l1.07,7.92.67.15A20.53,20.53,0,0,1,53,22.45l.54.39,6.55-3.93L64.9,25,59.55,30.6l.23.6a23.55,23.55,0,0,1,1.59,8l0,.66,7.51,2.86Z"/><path d="M40,26A13.54,13.54,0,0,0,26,40,13.54,13.54,0,0,0,40,54,13.54,13.54,0,0,0,54,40,13.54,13.54,0,0,0,40,26Zm0,26A11.61,11.61,0,0,1,28,40,11.61,11.61,0,0,1,40,28,11.61,11.61,0,0,1,52,40,11.61,11.61,0,0,1,40,52Z"/></svg>