<svg id="Icons" xmlns="http://www.w3.org/2000/svg" viewBox="0 0 80 80"><title>VW_Icon_Internet_M</title><path d="M40,19c-12.17,0-21,8.83-21,21s8.83,21,21,21,21-8.83,21-21S52.17,19,40,19ZM59,39H52A36,36,0,0,0,51,31a20.29,20.29,0,0,0-4.62-9C53.65,24.35,58.58,30.75,59,39ZM39,21.11V39H30a33.23,33.23,0,0,1,1-7.52C32.49,25.59,35.51,21.74,39,21.11ZM39,41v17.9C34,58,30.22,50.56,30,41Zm2,17.9V41h9C49.79,50.54,46,58,41,58.91ZM41,39V21.11c3.49.62,6.52,4.47,8,10.39A33.8,33.8,0,0,1,50,39ZM33.64,22A20.29,20.29,0,0,0,29,31,36,36,0,0,0,28,39H21.05C21.41,30.76,26.34,24.35,33.64,22ZM21.05,41H28c.19,7.39,2.36,13.55,5.68,17C26.35,55.67,21.43,49.27,21.05,41ZM46.36,58c3.32-3.45,5.49-9.61,5.68-17H59C58.58,49.26,53.65,55.66,46.36,58Z"/></svg>