<svg id="Icons" xmlns="http://www.w3.org/2000/svg" viewBox="0 0 80 80"><title>VW_Icon_Shuffle_M</title><path d="M53.73,30.25H63l-5.93,5.86,1.41,1.42,7.29-7.21a1.49,1.49,0,0,0,.45-1.07,1.51,1.51,0,0,0-.45-1.07L58.52,21l-1.41,1.42L63,28.25H53.73A10.91,10.91,0,0,0,46.38,31L28.11,47.52a9,9,0,0,1-6,2.24H14v2h8.11A10.91,10.91,0,0,0,29.46,49L47.72,32.49A9.08,9.08,0,0,1,53.73,30.25Z"/><path d="M29.57,32.42l4,4.14L35,35.16,31,31a10.91,10.91,0,0,0-7.35-2.76H14v2h9.61A9,9,0,0,1,29.57,32.42Z"/><path d="M58.52,42.48,57.11,43.9,63,49.73H52.33a9,9,0,0,1-6-2.19l-3.85-4-1.44,1.39L45,49a10.91,10.91,0,0,0,7.35,2.76H63.06l-6,5.89L58.52,59l7.29-7.21a1.51,1.51,0,0,0,.45-1.07,1.49,1.49,0,0,0-.45-1.07Z"/></svg>