<svg id="Icons" xmlns="http://www.w3.org/2000/svg" viewBox="0 0 80 80"><title>VW_Icon_Internet_S</title><path d="M54,39A13.49,13.49,0,0,0,40,26,13.49,13.49,0,0,0,26.05,39H26v2h.05c.46,7.59,6.18,13,14,13s13.49-5.4,14-13h0V39Zm-2,0H46a33.94,33.94,0,0,0-.47-4.88,16.45,16.45,0,0,0-1.95-5.64A11.41,11.41,0,0,1,52,39ZM40,52c-1.8,0-3.79-4.46-4-11h8C43.79,47.53,41.8,52,40,52ZM36,39a30.12,30.12,0,0,1,.44-4.52C37.26,30,38.86,28,40,28s2.74,2,3.54,6.49A30.38,30.38,0,0,1,44,39Zm.42-10.52a16.45,16.45,0,0,0-1.95,5.64A32.31,32.31,0,0,0,34,39h-6A11.41,11.41,0,0,1,36.44,28.48ZM28.05,41h6c.11,4.54,1,8.23,2.39,10.51A11.43,11.43,0,0,1,28.05,41ZM43.59,51.51C45,49.23,45.87,45.54,46,41h6A11.43,11.43,0,0,1,43.59,51.51Z"/></svg>