<svg id="Icons" xmlns="http://www.w3.org/2000/svg" viewBox="0 0 80 80"><title>VW_Icon_Skip-back_L</title><rect x="19" y="14" width="3" height="52"/><path d="M58.93,13.29a3.4,3.4,0,0,0-3.74.65L30.91,36.74a4.47,4.47,0,0,0,0,6.52l24.28,22.8a3.41,3.41,0,0,0,2.35.94,3.47,3.47,0,0,0,1.39-.29A3.38,3.38,0,0,0,61,63.56V16.44A3.38,3.38,0,0,0,58.93,13.29ZM58,63.56a.41.41,0,0,1-.27.4.44.44,0,0,1-.49-.09L33,41.07a1.45,1.45,0,0,1,0-2.14l24.27-22.8a.42.42,0,0,1,.3-.13.45.45,0,0,1,.19,0,.41.41,0,0,1,.27.4Z"/></svg>