<svg id="Icons" xmlns="http://www.w3.org/2000/svg" viewBox="0 0 80 80"><title>VW_Icon_Media_M</title><path d="M53.16,37.74l-19-12.09a2.74,2.74,0,0,0-2.79-.09,2.66,2.66,0,0,0-1.4,2.36V52.08a2.66,2.66,0,0,0,1.4,2.36,2.73,2.73,0,0,0,2.79-.09l19-12.07a2.67,2.67,0,0,0,0-4.54Zm-1.07,2.85L33,52.66a.7.7,0,0,1-.76,0,.66.66,0,0,1-.36-.6V27.92a.7.7,0,0,1,.36-.61.9.9,0,0,1,.37-.09.73.73,0,0,1,.39.12L52.09,39.42a.68.68,0,0,1,0,1.17Z"/><path d="M40,9C22,9,9,22,9,40S22,71,40,71,71,58,71,40,58,9,40,9Zm0,60C23.2,69,11,56.8,11,40S23.2,11,40,11,69,23.2,69,40,56.8,69,40,69Z"/></svg>