<svg id="Icons" xmlns="http://www.w3.org/2000/svg" viewBox="0 0 80 80"><title>VW_Icon_Repeat_M</title><path d="M12.52,40c0,6.93,4.86,12,11.55,12h8.49l-6.08,6,1.41,1.42L35.34,52a1.51,1.51,0,0,0,0-2.13l-7.45-7.37-1.41,1.42,6.08,6H24.07c-5.62,0-9.55-4.1-9.55-10s3.93-10,9.55-10H39V28H24.07C17.38,28,12.52,33.06,12.52,40Z"/><path d="M56,28H47.38l6.17-6.1-1.4-1.42L44.7,27.88a1.49,1.49,0,0,0,0,2.13l7.45,7.37L53.55,36l-6-5.93H56c5.63,0,9.56,4.1,9.56,10S61.59,50,56,50H41v2H56c6.7,0,11.56-5,11.56-12S62.66,28,56,28Z"/></svg>