<svg id="Icons" xmlns="http://www.w3.org/2000/svg" viewBox="0 0 80 80"><title>VW_Icon_AC_L</title><path d="M66.8,26.09a6.85,6.85,0,0,0-8,5.5L54,51.79A1.63,1.63,0,0,1,52.39,53h-12a8.69,8.69,0,0,0-5.88,2.53L20.89,69.15,23,71.27,36.59,57.7A5.77,5.77,0,0,1,40.36,56h12A4.64,4.64,0,0,0,57,52.5l4.8-20.2a3.93,3.93,0,0,1,4.62-3.24,4.4,4.4,0,0,1,3,1.46,4.49,4.49,0,0,1,.52,3.36c-.59,3.87-3.35,16.59-4.7,21.29A9,9,0,0,1,56.37,62H41.62a4.79,4.79,0,0,0-3.38,1.39L26.83,75,29,77.09l11.4-11.56A1.85,1.85,0,0,1,41.62,65H56.37A12.06,12.06,0,0,0,68.1,56c1.37-4.77,4.18-17.72,4.77-21.66a7.27,7.27,0,0,0-1.07-5.6A7.24,7.24,0,0,0,66.8,26.09Z"/><path d="M17.74,27.72A37,37,0,0,1,22.82,26a2.42,2.42,0,0,1,.1.6,6.19,6.19,0,0,1-2,4.72l1.84,2.37a9.18,9.18,0,0,0,3.18-7.09c0-1.58-.92-3.26-1.89-5-.74-1.34-1.57-2.87-1.57-3.74a6.21,6.21,0,0,1,1.94-4.7l-1.87-2.34a9.07,9.07,0,0,0-3.07,7c0,1.64,1,3.44,1.94,5.18l.13.25c-1.42.42-2.83.86-3.93,1.28L9.84,12.69A31.33,31.33,0,0,1,29.89,6,31.64,31.64,0,0,1,49.3,12.14l-7.56,12.5c-.75-.28-1.71-.59-2.87-.93-.33-.71-.72-1.43-1.12-2.17-.74-1.34-1.57-2.87-1.57-3.74a6.21,6.21,0,0,1,2-4.7l-1.88-2.34a9.11,9.11,0,0,0-3.07,7c0,1.64,1,3.44,1.94,5.18a10.94,10.94,0,0,1,1.52,3.6,6.19,6.19,0,0,1-2,4.72l1.84,2.37a9.09,9.09,0,0,0,3.16-6.59,12.78,12.78,0,0,1,2,.78l1.26.68L53.21,11.47l-1-.83A34.32,34.32,0,0,0,29.89,3a34.07,34.07,0,0,0-23,8.32l-1,.86L16.53,28.35Z"/><path d="M27.76,31.3l1.84,2.37a9.15,9.15,0,0,0,3.18-7.09c0-1.58-.92-3.26-1.89-5-.74-1.34-1.57-2.87-1.57-3.74a6.21,6.21,0,0,1,1.95-4.7l-1.88-2.34a9.11,9.11,0,0,0-3.07,7c0,1.64,1,3.44,1.94,5.18a10.94,10.94,0,0,1,1.52,3.6A6.19,6.19,0,0,1,27.76,31.3Z"/><path d="M29,49.89H22V37H19V52.89h5l-6.35,6.35a1.15,1.15,0,0,1-.84.35h0A1.25,1.25,0,0,1,16,59.2L9.19,52.89H14V37H11V49.89H4v2.26l9.88,9.21a4.14,4.14,0,0,0,3,1.23h0a4.18,4.18,0,0,0,3-1.23L29,52.12Z"/><path d="M67.53,6A8.36,8.36,0,0,0,59,14.5a8.5,8.5,0,0,0,17,0A8.35,8.35,0,0,0,67.53,6Zm0,14A5.38,5.38,0,0,1,62,14.5a5.5,5.5,0,0,1,11,0A5.37,5.37,0,0,1,67.53,20Z"/></svg>