<svg id="Icons" xmlns="http://www.w3.org/2000/svg" viewBox="0 0 80 80"><title>VW_Icon_Radio_S</title><rect x="25.03" y="38.97" width="9.96" height="2"/><path d="M57.29,29H25V26.74a.87.87,0,0,1,.73-.86l28.76-4.71-.33-2L25.4,23.9A2.88,2.88,0,0,0,23,26.74V29h-.28A4.71,4.71,0,0,0,18,33.71v18.5a4.71,4.71,0,0,0,4.71,4.71H57.29A4.71,4.71,0,0,0,62,52.21V33.71A4.71,4.71,0,0,0,57.29,29ZM60,52.21a2.71,2.71,0,0,1-2.71,2.71H22.71A2.71,2.71,0,0,1,20,52.21V33.71A2.71,2.71,0,0,1,22.71,31H57.29A2.71,2.71,0,0,1,60,33.71Z"/><rect x="25.03" y="45.03" width="9.96" height="2"/><path d="M47,35a7.75,7.75,0,0,0-8,8,7.75,7.75,0,0,0,8,8,7.75,7.75,0,0,0,8-8A7.75,7.75,0,0,0,47,35Zm0,14a5.75,5.75,0,0,1-6-6,5.75,5.75,0,0,1,6-6,5.75,5.75,0,0,1,6,6A5.75,5.75,0,0,1,47,49Z"/></svg>