<svg id="Icons" xmlns="http://www.w3.org/2000/svg" viewBox="0 0 80 80"><title>VW_Icon_Fav_S</title><path d="M59.34,27.21a10.28,10.28,0,0,0-14.64-.72L40,30.82l-4.7-4.33h0a10.25,10.25,0,0,0-14.62.73,11.41,11.41,0,0,0,.4,15c4.63,5.24,10.64,11.44,16.49,17a3.48,3.48,0,0,0,4.9,0c5.85-5.58,11.86-11.78,16.49-17A11.41,11.41,0,0,0,59.34,27.21Zm-1.9,13.72c-4.53,5.13-10.65,11.45-16.37,16.9a1.47,1.47,0,0,1-2.14,0c-5.72-5.45-11.84-11.77-16.37-16.9a9.39,9.39,0,0,1-.4-12.39,8.06,8.06,0,0,1,6.09-2.76A8.67,8.67,0,0,1,34,28l6,5.57L46,28a8.28,8.28,0,0,1,11.81.56A9.39,9.39,0,0,1,57.44,40.93Z"/></svg>