<svg id="Icons" xmlns="http://www.w3.org/2000/svg" viewBox="0 0 80 80"><title>VW_Icon_Bluetooth_L_Active</title><path d="M18.21,63.65a4.65,4.65,0,0,0,2.45-4.43c0-3.51-2.26-5.21-6.91-5.21H7V74h7.83C19,74,21.52,72,21.52,68.53A4.76,4.76,0,0,0,18.21,63.65Zm-8.2-7h3.53c3.05,0,4,.72,4,3,0,2.48-1.48,3-4,3H10Zm4.54,14.64H10v-6h4.51c2.74,0,3.91.9,3.91,3S17.23,71.33,14.55,71.33Z"/><polygon points="23 56.69 28.95 56.69 29.01 74.01 31.99 74.01 31.99 56.69 38 56.69 38 54.01 23 54.01 23 56.69"/><polygon points="46.98 20.29 46.98 30.02 51.61 25.37 46.98 20.29"/><polygon points="46.98 47.3 51.61 42.15 46.98 37.55 46.98 47.3"/><path d="M71,33.26A60.89,60.89,0,0,0,69.37,18C66.89,9,61.83,3.77,53.89,1.83l-.44-.1-.26-.05-1-.2c-.38-.07-.77-.12-1.16-.18l-.18,0-.43-.06q-.68-.07-1.38-.12l-.53,0L47.3,1H45.66l-1.26,0-.52,0q-.71,0-1.38.12l-.43.06-.18,0c-.39.06-.78.11-1.16.18l-1,.21-.18,0-.43.1C31.12,3.77,26.06,9,23.58,18A61,61,0,0,0,22,33.31v1.86L22,36l0,1.14.05,1c0,.33,0,.67.05,1l.08,1.07c0,.33.05.67.08,1v.11l.06.6h0A43.92,43.92,0,0,0,23.58,49c.09.34.2.65.3,1H39a2,2,0,0,1,2,2V65.55a34,34,0,0,0,5.21.45h.59c12.07-.11,19.46-5.66,22.6-17a44.15,44.15,0,0,0,1.26-7.21l.06-.6c0-.32,0-.64.08-1l.08-1.11c0-.34,0-.68.05-1l0-1c0-.43,0-.84,0-1.32v-.64c0-.5,0-1,0-1.47v-.44ZM54.18,43.77l-6.87,7.65A1.91,1.91,0,0,1,44,50.14V37.3l-6.9,7L35,42.13l8.27-8.32L35,25.59l2.11-2.12L44,30.33V17.48a1.92,1.92,0,0,1,3.33-1.29l6.92,7.6a2.28,2.28,0,0,1,.64,1.58A2.32,2.32,0,0,1,54.19,27L47.47,33.8l6.71,6.67a2.29,2.29,0,0,1,.69,1.65A2.31,2.31,0,0,1,54.18,43.77Z"/></svg>