<svg id="Icons" xmlns="http://www.w3.org/2000/svg" viewBox="0 0 80 80"><title>VW_Icon_Sound_L_Active</title><rect x="36" y="7" width="7" height="38.99"/><rect x="62" y="7" width="7" height="10.98"/><rect x="10" y="7" width="7" height="22.99"/><path d="M47.44,52H31.56A3.57,3.57,0,0,0,28,55.56v3.88A3.57,3.57,0,0,0,31.56,63H36V73h7V63h4.44A3.57,3.57,0,0,0,51,59.44V55.56A3.57,3.57,0,0,0,47.44,52Z"/><path d="M21.44,36H5.56A3.57,3.57,0,0,0,2,39.56v3.88A3.57,3.57,0,0,0,5.56,47H10V73h7V47h4.44A3.57,3.57,0,0,0,25,43.44V39.56A3.57,3.57,0,0,0,21.44,36Z"/><path d="M73.44,24H57.56A3.57,3.57,0,0,0,54,27.56v3.88A3.57,3.57,0,0,0,57.56,35H62V73h7V35h4.44A3.57,3.57,0,0,0,77,31.44V27.56A3.57,3.57,0,0,0,73.44,24Z"/></svg>