<svg id="Icons" xmlns="http://www.w3.org/2000/svg" viewBox="0 0 80 80"><title>VW_Icon_Seat_L_Active</title><path d="M64.45,6a41.19,41.19,0,0,0-8.4,2.81c-.22.1-.41.2-.59.3a3,3,0,0,0-1.52,3.36,60.37,60.37,0,0,1,.22,9l3.73.12c0,.71,0,1.41,0,2.11s0,1.41,0,2.12l-4.21.64A59.06,59.06,0,0,1,49,43.25a62.82,62.82,0,0,1-5.18,9.22l3.49,1.83c-.47.76-1,1.5-1.49,2.22l-1.55-.25c-1.61-.26-3.21-.48-4.82-.68l-.83-.11c-1.54-.18-3.08-.34-4.62-.47l-.9-.07c-1.58-.12-3.15-.22-4.74-.29H28c-1.53-.06-3.06-.09-4.6-.09h-.79c-1.19,0-2.39,0-3.58.06l-3,.08c-3.42.1-4.14.92-3.5,4.31a31.46,31.46,0,0,0,1.38,5A30.41,30.41,0,0,0,18,71.56c.1.15.21.29.32.44H51.57A79.08,79.08,0,0,0,64.45,6Z"/></svg>