<svg id="Icons" xmlns="http://www.w3.org/2000/svg" viewBox="0 0 80 80"><title>VW_Icon_Car_M</title><path d="M70,29H64l-4.67-7.93a7.39,7.39,0,0,0-5.89-3.42C50.61,17.33,44.92,17,40,17a122,122,0,0,0-13.41.65,7.73,7.73,0,0,0-5.93,3.49L16,29H10v1.92l4.23,1-3.05,5C10,38.74,10,40.8,10,42.63V59.21A2.79,2.79,0,0,0,12.78,62h7.11a2.78,2.78,0,0,0,2.78-2.79v-2.7c2.65.16,9.84.55,17.38.55s14.62-.39,17.25-.55v2.7A2.79,2.79,0,0,0,60.08,62h7.14A2.79,2.79,0,0,0,70,59.21V42.63a10,10,0,0,0-1.17-5.69l-3.07-5,4.24-1Zm-2.87,9v0A8.22,8.22,0,0,1,68,42.58l-7.93,1.25L56,43l.67-2.68,10.23-2.79ZM55,38.71,54.4,41H43.87a4,4,0,0,0-7.74,0H25.6L25,38.71l-10.8-3,2.52-4.14.11-.2a63.68,63.68,0,0,0,7.43.59H55.71a51.19,51.19,0,0,0,7.36-.67l.19.32,2.51,4.1ZM42,42a2,2,0,1,1-2-2A1.89,1.89,0,0,1,42,42ZM13.15,37.54l10.23,2.79L24.05,43l-4.12.82L12,42.58A8.29,8.29,0,0,1,12.87,38Zm9.18-15.31a5.72,5.72,0,0,1,4.51-2.59A117.29,117.29,0,0,1,40,19c4.86,0,10.45.33,13.24.64a5.36,5.36,0,0,1,4.43,2.51L62,29.48a46.88,46.88,0,0,1-6.27.53H24.29A58.42,58.42,0,0,1,18,29.55ZM67.22,60H60.08a.78.78,0,0,1-.78-.79V54.37l-1.07.08c-.09,0-8.8.61-18.18.61s-18.22-.61-18.31-.61l-1.07-.08v4.84a.78.78,0,0,1-.78.79H12.78a.78.78,0,0,1-.78-.79V44.61l8,1.25,6.52-1.3L26.1,43h10a4,4,0,0,0,7.74,0h10l-.39,1.57L60,45.86l8-1.25v14.6A.78.78,0,0,1,67.22,60Z"/></svg>