<svg id="Icons" xmlns="http://www.w3.org/2000/svg" viewBox="0 0 80 80"><title>VW_Icon_Seat-Air_S</title><path d="M54.56,19a25.58,25.58,0,0,0-5.09,1.7,1.9,1.9,0,0,0-1.28,2.22,37,37,0,0,1,.14,5.47l2.26.07c0,.86,0,1.71,0,2.56l-2.55.39a35.44,35.44,0,0,1-6,15.75l2.12,1.11q-.42.69-.9,1.35l-.94-.15a80,80,0,0,0-12.91-1l-2.36,0-1.81,0c-2.07.06-2.51.56-2.12,2.62a18,18,0,0,0,3.33,7.61l.19.27h20.1A47.94,47.94,0,0,0,54.56,19ZM45.73,57h-18a16,16,0,0,1-2.59-6.26c0-.08,0-.16,0-.23h.26l1.81,0,2.3,0a77.73,77.73,0,0,1,12.59,1l.66.11.28,0,1.23.2.72-1c.34-.47.67-1,1-1.46L47,47.49l-1.9-1-.19-.1a36.83,36.83,0,0,0,4.89-13.23L50.9,33l1.66-.26,0-1.67c0-.89,0-1.79,0-2.68l-.06-1.87-1.87-.06h-.28a35.79,35.79,0,0,0-.19-3.72c0-.06,0-.11,0-.15l.13-.06a25.86,25.86,0,0,1,2.77-1.06A45.73,45.73,0,0,1,45.73,57Z"/><path d="M30,29.8l-.71.71L36,37.27h0a2,2,0,0,0,1.43.59,1.37,1.37,0,0,0,.29,0,2,2,0,0,0,1.51-1,5.88,5.88,0,0,0-9.29-7Zm7.51,6.06h0L32.19,30.6a3.86,3.86,0,0,1,5.29,5.26Z"/><path d="M29.21,40.29a5.88,5.88,0,0,0,0-8.31l-.71-.71L21.74,38h0a2,2,0,0,0,.45,3.23A5.83,5.83,0,0,0,25,42,5.92,5.92,0,0,0,29.21,40.29Zm-6.07-.81s0,0,0,0l5.26-5.25a3.87,3.87,0,0,1-5.27,5.29Z"/><path d="M27,31.21l.71-.71L21,23.74h0a2.06,2.06,0,0,0-3.24.46,5.87,5.87,0,0,0,5.14,8.73A5.83,5.83,0,0,0,27,31.21Zm-7.5-6.06h0s0,0,0,0l5.26,5.25a3.86,3.86,0,0,1-5.29-5.26Z"/><path d="M28.51,29.74,35.27,23a2,2,0,0,0,.58-1.72,2,2,0,0,0-1-1.51,5.89,5.89,0,0,0-7,1,5.87,5.87,0,0,0,0,8.3Zm.7-7.6A3.88,3.88,0,0,1,31.94,21a3.81,3.81,0,0,1,1.92.51s0,0,0,0L28.6,26.82a3.88,3.88,0,0,1,.61-4.68Z"/></svg>