<svg id="Icons" xmlns="http://www.w3.org/2000/svg" viewBox="0 0 80 80"><title>VW_Icon_Sound_S</title><rect x="39" y="20" width="2" height="23.99"/><rect x="23" y="20" width="2" height="13.98"/><path d="M60.76,30H51.24A2.25,2.25,0,0,0,49,32.25v2.5A2.25,2.25,0,0,0,51.24,37H55V60h2V37h3.77A2.24,2.24,0,0,0,63,34.75v-2.5A2.24,2.24,0,0,0,60.76,30ZM61,34.75a.24.24,0,0,1-.24.24H51.24a.24.24,0,0,1-.24-.24v-2.5a.24.24,0,0,1,.24-.24h9.52a.24.24,0,0,1,.24.24Z"/><rect x="54.99" y="20" width="2" height="6.99"/><path d="M44.77,47H35.23A2.23,2.23,0,0,0,33,49.24v2.5A2.23,2.23,0,0,0,35.23,54H39v6h2V54h3.77A2.23,2.23,0,0,0,47,51.74v-2.5A2.23,2.23,0,0,0,44.77,47ZM45,51.74a.23.23,0,0,1-.23.23H35.23a.23.23,0,0,1-.23-.23v-2.5a.23.23,0,0,1,.23-.24h9.54a.23.23,0,0,1,.23.24Z"/><path d="M28.77,37H19.25A2.24,2.24,0,0,0,17,39.26v2.5A2.23,2.23,0,0,0,19.25,44H23V60h2V44h3.77A2.24,2.24,0,0,0,31,41.76v-2.5A2.25,2.25,0,0,0,28.77,37ZM29,41.76a.23.23,0,0,1-.24.23H19.25a.23.23,0,0,1-.24-.23v-2.5a.24.24,0,0,1,.24-.24h9.52a.24.24,0,0,1,.24.24Z"/></svg>