<svg id="Icons" xmlns="http://www.w3.org/2000/svg" viewBox="0 0 80 80"><title>VW_Icon_Car_S</title><path d="M65,32H59.46L55.53,25.3a6,6,0,0,0-4.82-2.78C48.45,22.27,43.94,22,40,22a95.13,95.13,0,0,0-10.67.52,6.31,6.31,0,0,0-4.85,2.86L20.57,32H15V34l3.94.68L17,37.85a8,8,0,0,0-1,4.62V55.59A2.41,2.41,0,0,0,18.43,58h6.69a2.41,2.41,0,0,0,2.41-2.41v-2c2.06.14,6.85.42,12.49.42s10.42-.28,12.48-.42v2A2.41,2.41,0,0,0,54.91,58H61.6A2.42,2.42,0,0,0,64,55.59V42.47a8,8,0,0,0-1-4.61l-1.94-3.18L65,34ZM26.17,26.46a4.34,4.34,0,0,1,3.44-2A95.4,95.4,0,0,1,40,24c3.86,0,8.28.26,10.47.5a4.06,4.06,0,0,1,3.37,1.89l3.6,6.09a38.08,38.08,0,0,1-5,.42H27.55a45.65,45.65,0,0,1-5-.37ZM18.68,38.92l.2-.33,9.34,2.54.57,2.3-3.64.72L18,43v-.56A6.32,6.32,0,0,1,18.68,38.92ZM61.6,56H54.91a.41.41,0,0,1-.41-.41V51.42l-1.08.09c-.06,0-6,.49-13.4.49s-13.35-.48-13.41-.49l-1.08-.09v4.17a.41.41,0,0,1-.41.41H18.43a.41.41,0,0,1-.41-.41V45.06l7.17,1.13,6-1.22-1.37-5.46L20,36.81l1.47-2.4a54,54,0,0,0,6.12.49H52.48a42.61,42.61,0,0,0,6.07-.56l1.51,2.47-9.9,2.7L48.79,45l6.05,1.22L62,45.06V55.59A.41.41,0,0,1,61.6,56ZM62,43l-7.14,1.12-3.64-.72.57-2.3,9.34-2.54.21.33v0A6.3,6.3,0,0,1,62,42.47Z"/><path d="M40,39a3.5,3.5,0,1,0,3.5,3.5A3.42,3.42,0,0,0,40,39Zm0,5a1.5,1.5,0,1,1,1.5-1.5A1.42,1.42,0,0,1,40,44Z"/></svg>