<svg id="Icons" xmlns="http://www.w3.org/2000/svg" viewBox="0 0 80 80"><title>VW_Icon_Car_L_Active</title><path d="M80,25.65H72L65.9,15.49l-.07-.11a10,10,0,0,0-7.94-4.53C54.12,10.44,46.57,10,40,10a164.29,164.29,0,0,0-17.83.85c-3.69.49-6,1.81-7.92,4.56L8.05,25.65H0v2.87l5.59,1.13-4,6.46C0,38.53,0,41.26,0,43.67V65.92a3.85,3.85,0,0,0,3.86,3.83h9.44a3.86,3.86,0,0,0,3.87-3.83V63.21c3.65.22,13,.71,22.89.71s19.1-.49,22.73-.71v2.71a3.85,3.85,0,0,0,3.86,3.83h9.48A3.86,3.86,0,0,0,80,65.92V43.67c0-2.4,0-5.12-1.59-7.54l-4-6.48L80,28.52ZM75.89,37.73l0,0C77,39.43,77,41.59,77,43.67v3.55L66.6,48.87l-8.86-1.79L58.26,45H44.84a5,5,0,0,1-9.65,0H21.78l.51,2.08-8.86,1.79L3,47.22V43.67c0-2.08,0-4.24,1.12-5.94L5.8,35l14.49,4L21,42H35.31a5,5,0,0,1,9.41,0H59l.74-3,14.49-4Z"/></svg>