<svg id="Icons" xmlns="http://www.w3.org/2000/svg" viewBox="0 0 80 80"><title>VW_Icon_Seat_L</title><path d="M64.55,6a41.88,41.88,0,0,0-8.4,2.81A3.11,3.11,0,0,0,54,12.47a60.37,60.37,0,0,1,.22,9l3.73.12c0,1.41,0,2.82,0,4.23l-4.21.64a58.68,58.68,0,0,1-9.87,26l3.49,1.83c-.47.76-1,1.5-1.49,2.22l-1.55-.25A133.2,133.2,0,0,0,23,54.54c-1.3,0-2.59,0-3.89.06l-3,.08c-3.42.1-4.14.92-3.5,4.31a29.84,29.84,0,0,0,5.5,12.57c.1.15.21.29.32.44H51.67A79.08,79.08,0,0,0,64.55,6ZM50.13,69H20a26.77,26.77,0,0,1-4.4-10.57c-.06-.29-.09-.52-.12-.71l.76,0,3-.09c1.27,0,2.55-.05,3.81-.05A129,129,0,0,1,43.9,59.23l1,.16.56.1,1.84.29,1.08-1.51c.56-.78,1.1-1.59,1.6-2.39l1.7-2.75-2.86-1.49-.59-.31a60.82,60.82,0,0,0,8.22-22.22l2-.31L61,28.42,61,25.91c0-1.46,0-2.94,0-4.4l-.1-2.8-2.79-.1-.76,0A59.93,59.93,0,0,0,57,12.18a2.27,2.27,0,0,1,0-.44l.38-.2a39.2,39.2,0,0,1,4.93-1.86A75.81,75.81,0,0,1,50.13,69Z"/></svg>