<svg id="Icons" xmlns="http://www.w3.org/2000/svg" viewBox="0 0 80 80"><title>VW_Icon_Settings_L</title><path d="M77.21,41,69,38a31.27,31.27,0,0,0-1.76-8.72l5.85-6.08a2,2,0,0,0,.12-2.62l-6.7-8.38A2,2,0,0,0,64,11.7l-7.12,4.22a28.18,28.18,0,0,0-8.35-3.75L47.35,3.72a2,2,0,0,0-2-1.72H34.62a2,2,0,0,0-2,1.72L31.5,12.17a28,28,0,0,0-8.33,3.73l-7.11-4.23a2,2,0,0,0-2.58.47l-6.7,8.37a2,2,0,0,0,.12,2.62l5.83,6.09A31.27,31.27,0,0,0,11,38L2.79,41a2,2,0,0,0-1.24,2.3L3.94,53.75a2,2,0,0,0,2.12,1.54l8.31-.73a26.79,26.79,0,0,0,5.7,7.3l-2.53,7.77a2,2,0,0,0,1,2.41l9.68,4.65A2,2,0,0,0,30.77,76l4.79-7.21a32,32,0,0,0,8.85,0L49.19,76a2,2,0,0,0,1.67.89,2,2,0,0,0,.85-.2l9.7-4.64a2,2,0,0,0,1-2.41l-2.53-7.77a26.34,26.34,0,0,0,5.71-7.3l8.31.75a2,2,0,0,0,2.12-1.54l2.4-10.44A2,2,0,0,0,77.21,41ZM73.32,52.26l-9.47-.85-.45.93a23.91,23.91,0,0,1-6.18,7.91l-.78.65,2.87,8.84-8.1,3.88-5.36-8.08-1,.15a29.11,29.11,0,0,1-9.81,0l-.95-.15-5.37,8.08-8.1-3.89,2.88-8.84-.78-.65a23.89,23.89,0,0,1-6.17-7.91l-.45-.93-9.47.84-2-8.73,9.22-3.44,0-1a28,28,0,0,1,1.94-9.62l.37-.89L9.67,21.7l5.61-7,8,4.77.79-.57a25.25,25.25,0,0,1,9.09-4.06l1-.24L35.5,5h9l1.31,9.6,1,.24a25.16,25.16,0,0,1,9.1,4.08l.8.57,8-4.76,5.6,7-6.56,6.83.36.9a27.93,27.93,0,0,1,1.94,9.62l0,1,9.21,3.46Z"/><path d="M40,23c-9.85,0-17,7.15-17,17s7.15,17,17,17,17-7.15,17-17S49.85,23,40,23Zm0,31A13.54,13.54,0,0,1,26,40,13.54,13.54,0,0,1,40,26,13.54,13.54,0,0,1,54,40,13.54,13.54,0,0,1,40,54Z"/></svg>