<svg id="Icons" xmlns="http://www.w3.org/2000/svg" viewBox="0 0 80 80"><defs><style>.cls-1{fill:#1d1d1b;}</style></defs><title>VW_Icon_Fuel_L_Active</title><path class="cls-1" d="M65.29,5.8,63.12,7.87a9.3,9.3,0,0,1,1.87,6V17H63.35A5.36,5.36,0,0,0,58,22.35v5.33A5.36,5.36,0,0,0,63.35,33H68V13.9A12.09,12.09,0,0,0,65.29,5.8Z"/><path class="cls-1" d="M65,58.79a3,3,0,0,1-3,2.73c-1.85,0-3-1-3-2.73V39.53a5.51,5.51,0,0,0-5.5-5.5H50V13.84c0-7.46-6.3-7.48-8.4-7.48-7.38-.15-15.85-.15-23.19,0-2.09,0-8.43,0-8.43,7.48V73H50V37h3.48a2.51,2.51,0,0,1,2.5,2.5V58.79c0,3.38,2.47,5.73,6,5.73a6,6,0,0,0,6-5.73V37H65ZM41,34H19V19H41Z"/></svg>