<svg id="Icons" xmlns="http://www.w3.org/2000/svg" viewBox="0 0 80 80"><title>VW_Icon_User_L</title><path d="M40,40c10.14,0,17.5-7.36,17.5-17.5S50.14,5,40,5s-17.5,7.36-17.5,17.5S29.86,40,40,40ZM40,8a14,14,0,0,1,14.5,14.5A14,14,0,0,1,40,37a14,14,0,0,1-14.5-14.5A14,14,0,0,1,40,8Z"/><path d="M76.45,69.81l-2.8-17.16c-.63-3.64-2.12-5.9-5-7.54L57.18,40,56,42.73l11.27,5c2,1.19,3,2.66,3.46,5.39l2.8,17.15a.53.53,0,0,1-.09.44.4.4,0,0,1-.31.15c-1.9.16-4.69.32-7.92.47L63.31,60.51l-3,.51,1.79,10.46c-7.4.3-16.22.52-22.15.52s-14.63-.22-22-.51L19.79,61l-3-.51L15,71.36c-3.29-.15-6.13-.32-8.06-.48a.4.4,0,0,1-.31-.15.53.53,0,0,1-.09-.44l2.8-17.13c.47-2.75,1.41-4.22,3.46-5.41l11.19-5L22.73,40,11.47,45l-.13.07C8.47,46.75,7,49,6.35,52.66L3.55,69.81a3.53,3.53,0,0,0,.68,2.77,3.45,3.45,0,0,0,2.43,1.3C13,74.39,28.72,74.94,38.5,75h3c9.78-.06,25.55-.61,31.84-1.12a3.45,3.45,0,0,0,2.43-1.3A3.53,3.53,0,0,0,76.45,69.81Z"/></svg>