<svg id="Icons" xmlns="http://www.w3.org/2000/svg" viewBox="0 0 80 80"><title>VW_Icon_Radio_M</title><rect x="18" y="44" width="12.96" height="2"/><rect x="18" y="37" width="12.96" height="2"/><rect x="18" y="51" width="12.96" height="2"/><path d="M64.77,24H20V21.4A1.54,1.54,0,0,1,21.33,20l37.59-7.28-.38-2L21,18a3.51,3.51,0,0,0-3,3.37V24H15.64A5.62,5.62,0,0,0,10,29.84V60.16A5.62,5.62,0,0,0,15.64,66H64.77C67.9,66,70,63.65,70,60.16V29.84C70,26.35,67.9,24,64.77,24ZM68,60.16C68,62,67.15,64,64.77,64H15.64A3.62,3.62,0,0,1,12,60.16V29.84A3.62,3.62,0,0,1,15.64,26H64.77C67.15,26,68,28,68,29.84Z"/><path d="M49,32A12.58,12.58,0,0,0,36,45,12.58,12.58,0,0,0,49,58,12.58,12.58,0,0,0,62,45,12.58,12.58,0,0,0,49,32Zm0,24A10.64,10.64,0,0,1,38,45,10.64,10.64,0,0,1,49,34,10.64,10.64,0,0,1,60,45,10.64,10.64,0,0,1,49,56Z"/></svg>