<svg id="Icons" xmlns="http://www.w3.org/2000/svg" viewBox="0 0 80 80"><title>VW_Icon_Settings_L_Active</title><path d="M77.21,41,69,38a31.27,31.27,0,0,0-1.76-8.72l5.85-6.08a2,2,0,0,0,.12-2.62l-6.7-8.38A2,2,0,0,0,64,11.7l-7.12,4.22a28.18,28.18,0,0,0-8.35-3.75L47.35,3.72a2,2,0,0,0-2-1.72H34.62a2,2,0,0,0-2,1.72L31.5,12.17a28,28,0,0,0-8.33,3.73l-7.11-4.23a2,2,0,0,0-2.58.47l-6.7,8.37a2,2,0,0,0,.12,2.62l5.83,6.09A31.27,31.27,0,0,0,11,38L2.79,41a2,2,0,0,0-1.24,2.3L3.94,53.75a2,2,0,0,0,2.12,1.54l8.31-.73a26.79,26.79,0,0,0,5.7,7.3l-2.53,7.77a2,2,0,0,0,1,2.41l9.68,4.65A2,2,0,0,0,30.77,76l4.79-7.21a32,32,0,0,0,8.85,0L49.19,76a2,2,0,0,0,1.67.89,2,2,0,0,0,.85-.2l9.7-4.64a2,2,0,0,0,1-2.41l-2.53-7.77a26.34,26.34,0,0,0,5.71-7.3l8.31.75a2,2,0,0,0,2.12-1.54l2.4-10.44A2,2,0,0,0,77.21,41ZM40,57c-9.85,0-17-7.15-17-17s7.15-17,17-17,17,7.15,17,17S49.85,57,40,57Z"/><circle cx="40" cy="40.03" r="14"/></svg>