<svg id="Icons" xmlns="http://www.w3.org/2000/svg" viewBox="0 0 80 80"><title>VW_Icon_Fav_L</title><path d="M72.56,16.83A16.66,16.66,0,0,0,61,11.08a17.92,17.92,0,0,0-12.94,4.53L40,23.13l-8.06-7.52,0,0A17.91,17.91,0,0,0,19,11.08,16.66,16.66,0,0,0,7.44,16.83c-6.13,7-5.84,18,.68,25.44,7.83,9,18,19.56,27.86,29.09a5.65,5.65,0,0,0,8,0c9.88-9.53,20-20.13,27.86-29.09C78.4,34.81,78.69,23.87,72.56,16.83ZM69.62,40.29C62,49.06,51.61,59.87,41.93,69.2a2.64,2.64,0,0,1-3.86,0c-9.68-9.33-20-20.14-27.69-28.91C4.84,34,4.55,24.72,9.7,18.8a13.71,13.71,0,0,1,9.49-4.73c.3,0,.59,0,.89,0a14.9,14.9,0,0,1,9.82,3.78L40,27.24l10.08-9.41a14.87,14.87,0,0,1,10.73-3.76A13.71,13.71,0,0,1,70.3,18.8C75.45,24.72,75.16,34,69.62,40.29Z"/></svg>