<svg id="Icons" xmlns="http://www.w3.org/2000/svg" viewBox="0 0 80 80"><title>VW_Icon_Phone_S</title><path d="M51.71,19.43a38.17,38.17,0,0,0-3.32-1.93,3.79,3.79,0,0,0-1.76-.5c-1.12,0-2,.73-2.55,2.15-.95,2.42-1.81,4.87-2.6,7.36a2.29,2.29,0,0,0,1.06,2.9l4,2.35Q41.64,41.12,36,50.07l-4-2.35a2.57,2.57,0,0,0-1.25-.36,2.41,2.41,0,0,0-1.79.88c-1.75,1.93-3.43,3.9-5.05,5.93-1.4,1.76-1.17,3.36.71,4.58,1.08.7,2.18,1.35,3.32,1.94A9.78,9.78,0,0,0,32.41,62a8,8,0,0,0,4.38-1.46c4.48-2.88,8.52-7.59,12.7-14.85h0c4.18-7.26,6.24-13.12,6.5-18.46C56.16,23.45,54.75,21.4,51.71,19.43ZM47.78,44.66l0,.05v0c-4,6.94-7.83,11.43-12,14.12A6,6,0,0,1,32.41,60a7.84,7.84,0,0,1-3.56-1.09c-1.07-.56-2.13-1.17-3.14-1.83-.52-.34-.69-.61-.71-.72s.06-.44.46-.94c1.59-2,3.26-4,5-5.83a.64.64,0,0,1,.31-.23.64.64,0,0,1,.24.09l1.64,1L35,51.8l1.67,1,1-1.64C41.47,45.15,45,39,48.34,32.69L49.23,31l-1.66-1-3-1.77-1-.58c-.22-.13-.28-.16-.16-.57.77-2.43,1.64-4.86,2.56-7.23.11-.26.38-.88.69-.88a2,2,0,0,1,.84.27c1.07.56,2.13,1.17,3.15,1.84,2.68,1.74,3.5,3.2,3.37,6C53.75,32.15,51.77,37.72,47.78,44.66Z"/></svg>