<svg id="Icons" xmlns="http://www.w3.org/2000/svg" viewBox="0 0 80 80"><title>VW_Icon_Seat-Air_L_Active</title><path d="M64.59,6h0a44.15,44.15,0,0,0-4.27,1.18A42.47,42.47,0,0,0,56.2,8.81a3.24,3.24,0,0,0-2,1.88,4.21,4.21,0,0,0-.13,1.78c.14,1.51.24,3,.27,4.51s0,3-.06,4.51l3.73.12q.07,2.12,0,4.23l-4.21.64a58.58,58.58,0,0,1-9.88,26l3.5,1.83c-.47.76-1,1.5-1.49,2.22l-1.55-.25c-1.61-.26-3.19-.48-4.76-.68l-.82-.11c-1.5-.18-3-.34-4.49-.47l-.87-.07c-1.53-.12-3.06-.22-4.59-.29h-.37c-1.48-.06-3-.09-4.49-.09h-.78c-1.17,0-2.35,0-3.55.06l-3,.08a5.21,5.21,0,0,0-3,.7,1.65,1.65,0,0,0-.4.48,5,5,0,0,0,0,3.13,29.67,29.67,0,0,0,5.49,12.57L19,72H51.71A79,79,0,0,0,67,25.43,78.92,78.92,0,0,0,64.59,6Z"/><path d="M25,24.44,23.9,25.5,34.77,36.36a3.07,3.07,0,0,0,2.24.93,2.27,2.27,0,0,0,.45,0,3.15,3.15,0,0,0,2.35-1.61A9.39,9.39,0,0,0,25,24.44Z"/><path d="M23.56,41.25a9.39,9.39,0,0,0,0-13.28L22.5,26.91,11.63,37.77a3.15,3.15,0,0,0-.9,2.69,3.21,3.21,0,0,0,1.61,2.36A9.36,9.36,0,0,0,16.9,44,9.45,9.45,0,0,0,23.56,41.25Z"/><path d="M20,26.56,21.1,25.5,10.23,14.64a3.1,3.1,0,0,0-2.69-.9,3.15,3.15,0,0,0-2.35,1.61A9.39,9.39,0,0,0,20,26.56Z"/><path d="M22.5,24.09,33.37,13.23a3.15,3.15,0,0,0,.9-2.69,3.21,3.21,0,0,0-1.61-2.36A9.45,9.45,0,0,0,21.44,9.75a9.39,9.39,0,0,0,0,13.28Z"/></svg>