<svg id="Icons" xmlns="http://www.w3.org/2000/svg" viewBox="0 0 80 80"><title>VW_Icon_Shuffle_S</title><path d="M49.1,34h7l-3.79,3.51L53.67,39l5.6-5.18a1.1,1.1,0,0,0,.34-.8l0-.51L53.67,27l-1.35,1.47L56.11,32h-7a8.14,8.14,0,0,0-5.27,1.86L31.16,44.6a6.2,6.2,0,0,1-4,1.39H21v2h6.17a8.15,8.15,0,0,0,5.28-1.86L45.12,35.4A6.17,6.17,0,0,1,49.1,34Z"/><path d="M31.16,35.38l2.23,1.89,1.29-1.53-2.23-1.88A8.11,8.11,0,0,0,27.17,32H21v2h6.17A6.26,6.26,0,0,1,31.16,35.38Z"/><path d="M53.67,41l-1.35,1.46L56.09,46h-7a6.17,6.17,0,0,1-4-1.39l-2.43-2L41.4,44.05l2.43,2.06A8.12,8.12,0,0,0,49.1,48h7l-3.81,3.54L53.67,53l5.6-5.18a1.1,1.1,0,0,0,.34-.8l0-.51Z"/></svg>