<svg id="Icons" xmlns="http://www.w3.org/2000/svg" viewBox="0 0 80 80"><title>VW_Icon_Navigation_M</title><path d="M61.89,61.68c-1.3-4.46-4.19-12-6.73-18.75-.56-1.49-1.11-2.93-1.62-4.27-2.84-7.57-8.17-20.18-11.09-27A2.65,2.65,0,0,0,40,10h0a2.65,2.65,0,0,0-2.48,1.63c-3.09,7.19-8.63,20.28-11.13,27.15-.72,2-1.6,4.33-2.52,6.79-2.14,5.68-4.55,12.12-5.74,16.07A2.53,2.53,0,0,0,19,64.39a2.64,2.64,0,0,0,2.92.26L40,54.66l18.13,10A2.62,2.62,0,0,0,61,64.42,2.55,2.55,0,0,0,61.89,61.68Zm-2.11,1.18a.64.64,0,0,1-.7.06L40,52.37,20.92,62.89a.61.61,0,0,1-.7-.06.55.55,0,0,1-.19-.61c1.16-3.89,3.57-10.3,5.69-15.95.92-2.46,1.8-4.81,2.53-6.81,2.48-6.82,8-19.87,11.09-27A.67.67,0,0,1,40,12h0a.67.67,0,0,1,.63.42c2.92,6.83,8.23,19.41,11.06,26.94.51,1.35,1.06,2.79,1.62,4.28,2.53,6.66,5.4,14.21,6.68,18.6A.56.56,0,0,1,59.78,62.86Z"/></svg>