<svg id="Icons" xmlns="http://www.w3.org/2000/svg" viewBox="0 0 80 80"><title>VW_Icon_Seat-Air_L</title><path d="M64.59,6A42,42,0,0,0,56.2,8.81a3.11,3.11,0,0,0-2.11,3.66,60.37,60.37,0,0,1,.21,9l3.73.12q.07,2.12,0,4.23l-4.21.64a58.58,58.58,0,0,1-9.88,26l3.5,1.83c-.47.76-1,1.5-1.49,2.22l-1.55-.25a128.29,128.29,0,0,0-20.86-1.73c-1.27,0-2.55,0-3.86.06l-3,.08c-3.42.1-4.15.92-3.5,4.31a29.83,29.83,0,0,0,5.49,12.57L19,72H51.71A79,79,0,0,0,64.59,6ZM50.17,69H20.57a26.93,26.93,0,0,1-4.41-10.57c-.05-.29-.09-.52-.11-.71l.76,0,3-.09c1.27,0,2.54-.05,3.77-.05A125,125,0,0,1,44,59.23l1,.16.56.1,1.84.29,1.08-1.51c.56-.78,1.1-1.59,1.6-2.39l1.7-2.75-2.86-1.49-.59-.31a60.82,60.82,0,0,0,8.22-22.22l2-.31L61,28.42l.07-2.51c0-1.46,0-2.94,0-4.4l-.1-2.8-2.8-.1-.75,0a62.65,62.65,0,0,0-.31-6.41,4.27,4.27,0,0,1,0-.44,4.08,4.08,0,0,1,.39-.2,39.65,39.65,0,0,1,4.92-1.86A75.77,75.77,0,0,1,50.17,69Z"/><path d="M25,24.44,23.9,25.5,34.77,36.36a3.07,3.07,0,0,0,2.24.93,2.27,2.27,0,0,0,.45,0,3.15,3.15,0,0,0,2.35-1.61A9.39,9.39,0,0,0,25,24.44Zm12.23,9.75a.18.18,0,0,1-.14.1c-.1,0-.15,0-.16,0l-8.62-8.62a6.42,6.42,0,0,1,7.86.94A6.41,6.41,0,0,1,37.19,34.19Z"/><path d="M23.56,41.25a9.39,9.39,0,0,0,0-13.28L22.5,26.91,11.63,37.77a3.15,3.15,0,0,0-.9,2.69,3.21,3.21,0,0,0,1.61,2.36A9.36,9.36,0,0,0,16.9,44,9.45,9.45,0,0,0,23.56,41.25ZM13.8,40.19a.18.18,0,0,1-.1-.14.21.21,0,0,1,.05-.16l8.62-8.62a6.39,6.39,0,0,1-8.57,8.92Z"/><path d="M20,26.56,21.1,25.5,10.23,14.64a3.1,3.1,0,0,0-2.69-.9,3.15,3.15,0,0,0-2.35,1.61A9.39,9.39,0,0,0,20,26.56ZM7.81,16.81a.18.18,0,0,1,.14-.1H8a.13.13,0,0,1,.12.05l8.62,8.62a6.42,6.42,0,0,1-7.86-.94A6.41,6.41,0,0,1,7.81,16.81Z"/><path d="M22.5,24.09,33.37,13.23a3.15,3.15,0,0,0,.9-2.69,3.21,3.21,0,0,0-1.61-2.36A9.45,9.45,0,0,0,21.44,9.75a9.39,9.39,0,0,0,0,13.28Zm1.06-12.22A6.46,6.46,0,0,1,28.1,10a6.38,6.38,0,0,1,3.1.81.18.18,0,0,1,.1.14.21.21,0,0,1-.05.16l-8.62,8.62a6.4,6.4,0,0,1,.93-7.86Z"/></svg>