<svg id="Icons" xmlns="http://www.w3.org/2000/svg" viewBox="0 0 80 80"><defs><style>.cls-1{fill:#1d1d1b;}</style></defs><title>VW_Icon_Energy_L</title><polygon class="cls-1" points="32.45 18.03 31.64 17.04 23 29.05 29.36 35.35 27.94 45.42 29.02 46 37 33.48 30.81 27.19 32.45 18.03"/><path class="cls-1" d="M72,15V9H69v6H64V9H61v6H58v6.43A8.17,8.17,0,0,0,66.52,30C71.35,30,75,26.05,75,20.84V15Zm0,5.85c0,3.5-2.35,6.14-5.47,6.14A5.24,5.24,0,0,1,61,21.42V18H72Z"/><path class="cls-1" d="M65,58.79a3,3,0,0,1-3,2.73c-1.85,0-3-1-3-2.73V39.53a5.51,5.51,0,0,0-5.5-5.5H50V13.84c0-7.46-6.3-7.48-8.4-7.48-7.38-.15-15.85-.15-23.19,0-2.09,0-8.43,0-8.43,7.48V73H50V37h3.48a2.51,2.51,0,0,1,2.5,2.5V58.79c0,3.38,2.47,5.73,6,5.73a6,6,0,0,0,6-5.73V34H65ZM47,70H13V13.84c0-2.9.87-4.48,5.46-4.48,7.34-.15,15.76-.15,23.11,0h0c4.56,0,5.42,1.58,5.42,4.48Z"/></svg>