<svg id="Icons" xmlns="http://www.w3.org/2000/svg" viewBox="0 0 80 80"><title>VW_Icon_Shuffle_L_Active</title><path d="M57.16,30h8.31l-4.42,4.37,4.22,4.27L76.06,27.88a2,2,0,0,0,0-2.84L65.27,14.37l-4.22,4.27L65.47,23H57.16a15.7,15.7,0,0,0-10.58,4L24.21,47.93a8.76,8.76,0,0,1-5.84,2.17H6.1v7H18.37a15.7,15.7,0,0,0,10.58-4L51.32,32.17A8.76,8.76,0,0,1,57.16,30Z"/><path d="M25.7,32.24,29,35.83l5.14-4.76-3.43-3.7-.21-.21A14.7,14.7,0,0,0,20,23H6.1v7H20A7.71,7.71,0,0,1,25.7,32.24Z"/><path d="M65.27,41.46l-4.22,4.27L65.33,50H55.46a7.94,7.94,0,0,1-5.75-2.38l-3.28-3.44L41.36,49l3.37,3.54.19.18A15.15,15.15,0,0,0,55.46,57H65.6l-4.55,4.5,4.22,4.27L76.06,55a2,2,0,0,0,0-2.84Z"/></svg>