<svg id="Icons" xmlns="http://www.w3.org/2000/svg" viewBox="0 0 80 80"><title>VW_Icon_Navigation_S</title><path d="M56.91,57.11c-1-3.55-3.19-9.58-5.13-14.9-.43-1.19-.85-2.34-1.23-3.41-2.13-5.88-6.09-15.67-8.26-21A2.48,2.48,0,0,0,40,16.26h0a2.49,2.49,0,0,0-2.31,1.55c-2.29,5.57-6.41,15.72-8.28,21.09-.55,1.58-1.22,3.44-1.92,5.39-1.63,4.52-3.47,9.65-4.38,12.79a2.28,2.28,0,0,0,.78,2.43,2.17,2.17,0,0,0,2.46.17L40,51.82,53.67,59.7a2.22,2.22,0,0,0,1.1.3,2.19,2.19,0,0,0,1.35-.47A2.28,2.28,0,0,0,56.91,57.11Zm-2,.84a.18.18,0,0,1-.23,0L40,49.51,25.33,58a.18.18,0,0,1-.23,0,.28.28,0,0,1-.09-.3c.89-3.08,2.72-8.17,4.34-12.66.7-2,1.37-3.82,1.93-5.41,1.85-5.33,6-15.44,8.24-21a.48.48,0,0,1,.46-.31h0a.48.48,0,0,1,.46.31c2.17,5.3,6.11,15.06,8.23,20.91.38,1.07.8,2.22,1.23,3.41C51.83,48.18,54,54.17,55,57.65A.28.28,0,0,1,54.9,58Z"/></svg>