<svg id="Icons" xmlns="http://www.w3.org/2000/svg" viewBox="0 0 80 80"><title>VW_Icon_Fav_M</title><path d="M65.54,22.49a13.36,13.36,0,0,0-19.05-.94l-6.49,6-6.49-6h0a13.35,13.35,0,0,0-19,.95C9.68,27.92,9.91,36.36,15,42.11c6.17,7,14.17,15.24,22,22.67a4.3,4.3,0,0,0,6.08,0c7.79-7.43,15.79-15.69,22-22.67C70.09,36.36,70.32,27.92,65.54,22.49Zm-2,18.3c-6,6.83-14.21,15.26-21.84,22.54a2.3,2.3,0,0,1-3.32,0c-7.63-7.28-15.8-15.71-21.84-22.54-4.43-5-4.66-12.3-.54-17A11.1,11.1,0,0,1,24.33,20a11.91,11.91,0,0,1,7.83,3L40,30.26,47.83,23A11.37,11.37,0,0,1,64,23.81C68.16,28.49,67.93,35.78,63.5,40.79Z"/></svg>