<svg id="Icons" xmlns="http://www.w3.org/2000/svg" viewBox="0 0 80 80"><title>VW_Icon_Phone_M</title><path d="M55.54,14.08a46.91,46.91,0,0,0-4.23-2.45A4.93,4.93,0,0,0,49.07,11c-1.43,0-2.53.92-3.24,2.73Q44,18.32,42.52,23a2.89,2.89,0,0,0,1.35,3.68l5.12,3q-6.27,11.86-13.42,23.2l-5.13-3a2.9,2.9,0,0,0-3.87.65c-2.22,2.44-4.37,4.94-6.42,7.51-1.79,2.24-1.49,4.26.9,5.81q2.06,1.32,4.23,2.45A12.48,12.48,0,0,0,31,68a10.23,10.23,0,0,0,5.58-1.86c5.7-3.63,10.83-9.61,16.15-18.8h0C58,38.15,60.66,30.72,61,24,61.21,19.18,59.41,16.58,55.54,14.08ZM51,46.33l0,0h0C45.82,55.25,40.9,61,35.48,64.46A8.32,8.32,0,0,1,31,66a10.36,10.36,0,0,1-4.78-1.44c-1.39-.72-2.76-1.51-4.06-2.35-.67-.43-1.07-.88-1.13-1.27a2.37,2.37,0,0,1,.7-1.61c2-2.52,4.15-5,6.34-7.41a1.18,1.18,0,0,1,.8-.47,1.26,1.26,0,0,1,.58.2l1.9,1.1,3.24,1.87,1.66,1,1-1.63c4.77-7.57,9.31-15.42,13.5-23.33l.9-1.7L50,28l-5.13-3c-.48-.28-.69-.57-.45-1.34,1-3.09,2.09-6.18,3.27-9.19C48.27,13,48.85,13,49.07,13a3,3,0,0,1,1.33.41,46.81,46.81,0,0,1,4.05,2.35c3.57,2.3,4.71,4.35,4.53,8.11C58.68,30.3,56.14,37.44,51,46.33Z"/></svg>