<svg id="Icons" xmlns="http://www.w3.org/2000/svg" viewBox="0 0 80 80"><title>VW_Icon_Calender_S</title><path d="M55,21V19.27A2.25,2.25,0,0,0,52.78,17H49.27A2.26,2.26,0,0,0,47,19.27V21H33V19.27A2.26,2.26,0,0,0,30.72,17H27.21A2.25,2.25,0,0,0,25,19.27V21H17V54.25C17,57.84,20.42,61,24.3,61H56.19A6.78,6.78,0,0,0,63,54.25V21Zm-6-1.72a.26.26,0,0,1,.26-.25h3.51a.25.25,0,0,1,.25.25v5.48a.26.26,0,0,1-.25.26H49.27a.26.26,0,0,1-.26-.26Zm-22,0a.25.25,0,0,1,.25-.25h3.51a.26.26,0,0,1,.26.25v5.48a.26.26,0,0,1-.26.26H27.21a.26.26,0,0,1-.25-.26ZM25,23v1.76A2.26,2.26,0,0,0,27.21,27h3.51A2.26,2.26,0,0,0,33,24.75V23H47v1.76A2.26,2.26,0,0,0,49.27,27h3.51A2.26,2.26,0,0,0,55,24.75V23h6v7.13H19V23ZM56.19,59H24.3C21.53,59,19,56.73,19,54.25V32.12H61V54.25A4.78,4.78,0,0,1,56.19,59Z"/><path d="M31.11,50.11l4.4-4.25c1.4-1.33,2.4-2.62,2.4-4.58,0-2.85-2.2-4.74-5.11-4.74a6.68,6.68,0,0,0-4.61,1.89l1,1.43a5,5,0,0,1,3.65-1.43,2.78,2.78,0,0,1,3,2.85c0,1.49-1,2.51-2,3.51l-5.6,5.59V52h9.83V50.15h-7Z"/><polygon points="49.52 41.33 47.47 41.33 47.47 46.95 42.27 46.95 42.27 46.91 46.69 36.88 44.63 36.88 40 47.24 40 48.8 47.47 48.8 47.47 52 49.52 52 49.52 48.8 51.7 48.8 51.7 46.95 49.52 46.95 49.52 41.33"/></svg>