<svg id="Icons" xmlns="http://www.w3.org/2000/svg" viewBox="0 0 80 80"><title>VW_Icon_Radio_L_Active</title><path d="M68.5,23H15V19.63a1.83,1.83,0,0,1,1.48-1.8L62.92,9.45,62.39,6.5,15.92,14.88A4.83,4.83,0,0,0,12,19.63V23h-.49A7.5,7.5,0,0,0,4,30.5v32a7.5,7.5,0,0,0,7.5,7.5h57a7.5,7.5,0,0,0,7.5-7.5v-32A7.5,7.5,0,0,0,68.5,23ZM29,56H13.05V53H29Zm0-8H13.05V45H29Zm0-8H13.05V37H29ZM51.5,62c-9,0-15.5-6.52-15.5-15.5S42.52,31,51.5,31,67,37.52,67,46.5,60.48,62,51.5,62Z"/><circle cx="51.5" cy="46.5" r="12.5"/></svg>