<svg id="Icons" xmlns="http://www.w3.org/2000/svg" viewBox="0 0 80 80"><title>VW_Icon_Internet_L_Active</title><path d="M26.05,38.51H38.5V13.66c-4.79.93-8.94,6.28-11,14.44A46.56,46.56,0,0,0,26.05,38.51Z"/><path d="M54,38.5a46.47,46.47,0,0,0-1.39-10.4c-2.12-8.17-6.28-13.52-11.07-14.45V38.51Z"/><path d="M55.47,27.35A49.54,49.54,0,0,1,57,38.5h9.51C65.92,27.15,59.19,18.33,49.24,15A28.89,28.89,0,0,1,55.47,27.35Z"/><path d="M38.51,66.35V41.51H26C26.4,54.7,31.65,65,38.51,66.35Z"/><path d="M41.5,41.51V66.34C48.36,65,53.6,54.68,54,41.5Z"/><path d="M23,41.51H13.54c.55,11.32,7.27,20.13,17.2,23.49C26.24,60.13,23.29,51.65,23,41.51Z"/><path d="M57,41.5C56.71,51.64,53.76,60.13,49.25,65c10-3.36,16.67-12.18,17.21-23.52Z"/><path d="M23.05,38.51a49.71,49.71,0,0,1,1.48-11.16A28.89,28.89,0,0,1,30.76,15c-10,3.36-16.69,12.2-17.23,23.55Z"/></svg>