<svg id="Icons" xmlns="http://www.w3.org/2000/svg" viewBox="0 0 80 80"><title>VW_Icon_User_S</title><path d="M62,57.77l-1.68-10.3a5.88,5.88,0,0,0-3-4.59l-7-3.12-.82,1.83,6.85,3a4,4,0,0,1,2,3.16L60,58.09a.23.23,0,0,1,0,.19.13.13,0,0,1-.11,0c-1.13.09-2.77.19-4.66.28l-1.12-6.52-2,.34,1.07,6.26c-4.42.18-9.65.31-13.17.31s-8.69-.13-13.09-.3L28,52.43l-2-.34L24.9,58.61c-1.93-.09-3.61-.18-4.75-.28a.13.13,0,0,1-.11,0,.23.23,0,0,1,0-.19l1.68-10.28a3.92,3.92,0,0,1,2-3.15l6.85-3.08-.82-1.82-6.93,3.12a5.89,5.89,0,0,0-3.05,4.6L18,57.77a2.23,2.23,0,0,0,.43,1.74,2.18,2.18,0,0,0,1.53.82c3.76.31,13.14.63,19,.67h2c5.87,0,15.25-.36,19-.67a2.18,2.18,0,0,0,1.53-.82A2.23,2.23,0,0,0,62,57.77Z"/><path d="M40,40A10.5,10.5,0,1,0,29.5,29.5,10.39,10.39,0,0,0,40,40Zm0-19a8.31,8.31,0,0,1,8.5,8.5,8.5,8.5,0,0,1-17,0A8.31,8.31,0,0,1,40,21Z"/></svg>