<svg id="Icons" xmlns="http://www.w3.org/2000/svg" viewBox="0 0 80 80"><title>VW_Icon_Seat_M</title><path d="M58.42,14a31.49,31.49,0,0,0-6.36,2.13,2.35,2.35,0,0,0-1.6,2.77,45.84,45.84,0,0,1,.16,6.83l2.83.1c0,1.06,0,2.13,0,3.2l-3.19.49A44.55,44.55,0,0,1,42.8,49.21l2.64,1.38c-.35.57-.73,1.14-1.12,1.69l-1.18-.2A101.08,101.08,0,0,0,27,50.77c-1,0-2,0-2.95,0l-2.27.07c-2.59.08-3.14.7-2.65,3.27a22.74,22.74,0,0,0,4.16,9.52l.25.33H48.66A59.9,59.9,0,0,0,58.42,14ZM47.64,62H24.52a20.58,20.58,0,0,1-3.47-8.23c-.07-.38-.1-.65-.12-.83.19,0,.46,0,.87-.06l2.27-.07c1,0,1.93,0,2.89,0a97.59,97.59,0,0,1,15.86,1.29l.76.12.42.07,1.22.2.72-1c.42-.59.83-1.19,1.2-1.8l1.14-1.83-1.91-1-.71-.37A45.8,45.8,0,0,0,52,31.27l.19,0L53.77,31l1.65-.25,0-1.67c0-1.11,0-2.22,0-3.32l-.07-1.87-1.87-.06-.83,0a48.28,48.28,0,0,0-.23-5.09,2.6,2.6,0,0,1,0-.5,1.67,1.67,0,0,1,.44-.26,29.59,29.59,0,0,1,4-1.51A57.68,57.68,0,0,1,47.64,62Z"/></svg>