<svg id="Icons" xmlns="http://www.w3.org/2000/svg" viewBox="0 0 80 80"><title>VW_Icon_AC_M</title><path d="M60.37,29.94a5.15,5.15,0,0,0-5.93,4.18L50.5,49.81A1.51,1.51,0,0,1,49,51H39.65c-2.35,0-3.72,1.18-5.06,2.51l-9.28,9.78,1.45,1.37L36,54.86c1.3-1.3,2.17-1.91,3.63-1.91H49a3.5,3.5,0,0,0,3.4-2.66L56.38,34.6a3.17,3.17,0,0,1,3.7-2.68,3.48,3.48,0,0,1,2.39,1.19,3.67,3.67,0,0,1,.45,2.78c-.43,2.86-2.8,13-3.87,16.73-1,3.45-3.28,5.35-6.49,5.35H40.83a3.49,3.49,0,0,0-2.49,1l-8.1,8.55,1.46,1.37,8.07-8.52A1.46,1.46,0,0,1,40.83,60H52.56c4.12,0,7.19-2.48,8.42-6.8,1.1-3.89,3.47-14,3.92-17a5.6,5.6,0,0,0-.82-4.27A5.37,5.37,0,0,0,60.37,29.94Z"/><path d="M21.66,30.69a33.54,33.54,0,0,1,4.42-1.47.36.36,0,0,1,0,.1,5.3,5.3,0,0,1-1.44,4L26,34.77a7.21,7.21,0,0,0,2.08-5.45,10.23,10.23,0,0,0-1.25-3.87,9.58,9.58,0,0,1-1.1-3.15,5.35,5.35,0,0,1,1.39-4l-1.38-1.45a7.31,7.31,0,0,0-2,5.42,10.57,10.57,0,0,0,1.28,4c.16.34.32.68.46,1-1.41.4-2.88.84-3.93,1.24l-6.22-9.33a25,25,0,0,1,15.93-5.3A25.18,25.18,0,0,1,46.69,18.8l-6.06,9.85c-.57-.22-1.32-.46-2.23-.72a18.35,18.35,0,0,0-1-2.48,9.53,9.53,0,0,1-1.09-3.15,5.35,5.35,0,0,1,1.39-4L36.3,16.89a7.23,7.23,0,0,0-2,5.41,10.57,10.57,0,0,0,1.28,4,9.49,9.49,0,0,1,1.06,3,5.3,5.3,0,0,1-1.44,4l1.37,1.46a6.92,6.92,0,0,0,2-4.69,12.07,12.07,0,0,1,2,.72l.83.44,7.93-12.9-.68-.55a27,27,0,0,0-17.37-5.87,26.8,26.8,0,0,0-17.92,6.36l-.66.58L20.86,31.1Z"/><path d="M31.29,34.77a7.21,7.21,0,0,0,2.08-5.45,10.09,10.09,0,0,0-1.26-3.87A9.77,9.77,0,0,1,31,22.3a5.35,5.35,0,0,1,1.39-4L31,16.88a7.27,7.27,0,0,0-2,5.42,10.57,10.57,0,0,0,1.28,4,9.55,9.55,0,0,1,1.07,3,5.27,5.27,0,0,1-1.45,4Z"/><path d="M30.43,49.4V48H26V38H24V50h3.14l-5,5.21a1.07,1.07,0,0,1-1.48,0L15.38,50H19V38H17V48H13l-1,.08V49.5l7.33,7.13a3.07,3.07,0,0,0,4.3,0l6.53-6.84Z"/><path d="M61.5,14A6.39,6.39,0,0,0,55,20.5a6.5,6.5,0,0,0,13,0A6.39,6.39,0,0,0,61.5,14Zm0,11A4.4,4.4,0,0,1,57,20.5a4.5,4.5,0,0,1,9,0A4.4,4.4,0,0,1,61.5,25Z"/></svg>