<svg id="Icons" xmlns="http://www.w3.org/2000/svg" viewBox="0 0 80 80"><title>VW_Icon_Repeat_L</title><path d="M7,40.05C7,48.57,13,55,20.85,55h9.62l-6.54,6.47L26,63.59l9.16-9a1.5,1.5,0,0,0,0-2.13l-9.16-9-2.11,2.13L30.48,52H20.85C13.8,52,10,45.84,10,40.05s3.8-12,10.85-12H38V25H20.85C13,25,7,31.47,7,40.05Z"/><path d="M59.17,25H49.42l6.65-6.58L54,16.29l-9.15,9a1.5,1.5,0,0,0,0,2.13l9.15,9,2.11-2.13L49.63,28h9.54c7,0,10.85,6.21,10.85,12S66.22,52,59.17,52H42v3H59.17C67.07,55,73,48.57,73,40.05S67.07,25,59.17,25Z"/></svg>