<svg id="Icons" xmlns="http://www.w3.org/2000/svg" viewBox="0 0 80 80"><title>VW_Icon_Shuffle_L</title><path d="M57.16,28H67.92l-6.79,6.73,2.11,2.13,9.4-9.29a1.49,1.49,0,0,0,0-2.13l-9.4-9.29-2.11,2.13L67.92,25H57.16a13.68,13.68,0,0,0-9.22,3.48L25.56,49.41a10.81,10.81,0,0,1-7.19,2.69H8v3H18.37a13.68,13.68,0,0,0,9.22-3.48L50,30.69A10.81,10.81,0,0,1,57.16,28Z"/><path d="M27.11,30.81l5.51,5.93,2.2-2-5.56-6-.09-.08A12.64,12.64,0,0,0,20,25H8v3H20A9.65,9.65,0,0,1,27.11,30.81Z"/><path d="M63.24,43.14l-2.11,2.13L67.89,52H55.46A10,10,0,0,1,48.32,49L43,43.35l-2.19,2,5.33,5.73.09.09A13.07,13.07,0,0,0,55.46,55H68l-6.82,6.76,2.11,2.13,9.41-9.32a1.49,1.49,0,0,0,0-2.13Z"/></svg>