<svg id="Icons" xmlns="http://www.w3.org/2000/svg" viewBox="0 0 80 80"><defs><style>.cls-1{fill:#1d1d1b;}</style></defs><title>VW_Icon_Energy_S</title><polygon class="cls-1" points="35.94 26.2 35.46 25.61 30.39 32.83 34.12 36.6 33.29 42.66 33.92 43 38.61 35.48 34.97 31.7 35.94 26.2"/><path class="cls-1" d="M61,24V20H59v4H57V20H55v4H53v3.65c0,3.2,2,5.35,5,5.35s5-2.15,5-5.35V24Zm0,3.65C61,29.71,59.85,31,58,31s-3-1.25-3-3.35V26h6Z"/><path class="cls-1" d="M57,50.6c0,1.1-.52,2.38-2,2.38s-2-1.28-2-2.38V39a4,4,0,0,0-4-4H47V23.23c0-4.67-4-4.68-5.27-4.68-4.6-.1-9.88-.1-14.46,0-1.3,0-5.27,0-5.27,4.68V60H47V37h2a2,2,0,0,1,2,2V50.6C51,53.18,52.64,55,55,55s4-1.8,4-4.38V35H57ZM45,58H24V23.23c0-1.78.5-2.68,3.3-2.68,4.57-.1,9.82-.1,14.4,0h0c2.77,0,3.28.9,3.28,2.68Z"/></svg>