<svg id="Icons" xmlns="http://www.w3.org/2000/svg" viewBox="0 0 80 80"><title>VW_Icon_Seat-Air_M</title><path d="M28,27.29l-.71.71,8.21,8.21a2.28,2.28,0,0,0,1.61.67,1.66,1.66,0,0,0,.32,0,2.28,2.28,0,0,0,1.7-1.16A7,7,0,0,0,28,27.29Zm9.38,7.43a.31.31,0,0,1-.22.15.27.27,0,0,1-.25-.08l-6.72-6.72a5,5,0,0,1,7.19,6.65Z"/><path d="M26.7,39.94a7,7,0,0,0,0-9.95L26,29.28l-8.2,8.21a2.27,2.27,0,0,0-.65,1.93,2.3,2.3,0,0,0,1.16,1.7,7.06,7.06,0,0,0,8.4-1.18Zm-7.43-.57a.31.31,0,0,1-.15-.22.3.3,0,0,1,.08-.25l6.72-6.72a5,5,0,0,1-.64,6.35A5.06,5.06,0,0,1,19.27,39.37Z"/><path d="M24,28.71l.7-.71-8.2-8.21a2.31,2.31,0,0,0-3.63.52A7,7,0,0,0,24,28.71Zm-9.38-7.43a.31.31,0,0,1,.22-.15h.05a.28.28,0,0,1,.2.09l6.72,6.72a5,5,0,0,1-7.19-6.65Z"/><path d="M26,26.72l8.2-8.21a2.26,2.26,0,0,0,.65-1.93,2.3,2.3,0,0,0-1.16-1.7A7,7,0,0,0,25.29,26Zm.7-9.25a5.07,5.07,0,0,1,6-.84.31.31,0,0,1,.15.22.3.3,0,0,1-.08.25l-6.72,6.72A5,5,0,0,1,26.7,17.47Z"/><path d="M58.19,14a31.49,31.49,0,0,0-6.36,2.13,2.35,2.35,0,0,0-1.6,2.77,45.84,45.84,0,0,1,.16,6.83l2.83.1c0,1.06,0,2.13,0,3.2l-3.19.49a44.55,44.55,0,0,1-7.48,19.69l2.64,1.38c-.35.57-.73,1.14-1.12,1.69l-1.18-.2A98.17,98.17,0,0,0,27,50.77c-1,0-1.95,0-2.93,0l-2.27.07c-2.59.08-3.14.7-2.65,3.27a22.74,22.74,0,0,0,4.16,9.52l.25.33H48.43A59.9,59.9,0,0,0,58.19,14ZM47.41,62H24.6a20.58,20.58,0,0,1-3.47-8.23c-.07-.38-.1-.65-.12-.83.19,0,.46,0,.87-.06l2.27-.07c1,0,1.92,0,2.87,0a95.81,95.81,0,0,1,15.57,1.29l.8.13.38.06,1.22.2.72-1c.42-.59.83-1.19,1.2-1.8l1.14-1.83-1.91-1-.71-.37a45.8,45.8,0,0,0,6.38-17.18l.13,0,1.6-.25,1.65-.25,0-1.67c0-1.11,0-2.22,0-3.32l-.07-1.87-1.87-.06-.83,0a48.28,48.28,0,0,0-.23-5.09,2.6,2.6,0,0,1,0-.5,1.67,1.67,0,0,1,.44-.26,29.59,29.59,0,0,1,4.05-1.51A57.68,57.68,0,0,1,47.41,62Z"/></svg>