<svg id="Icons" xmlns="http://www.w3.org/2000/svg" viewBox="0 0 80 80"><title>VW_Icon_Mobile_L</title><path d="M54,4H26a5.5,5.5,0,0,0-5.5,5.5v61A5.5,5.5,0,0,0,26,76H54a5.5,5.5,0,0,0,5.5-5.5V9.5A5.5,5.5,0,0,0,54,4ZM26,7H54a2.5,2.5,0,0,1,2.5,2.5v4.72h-33V9.5A2.5,2.5,0,0,1,26,7ZM56.5,17.22V62.78h-33V17.22ZM54,73H26a2.5,2.5,0,0,1-2.5-2.5V65.78h33V70.5A2.5,2.5,0,0,1,54,73Z"/><rect x="36.08" y="9.11" width="7.67" height="3"/><path d="M39.92,66.93a2.46,2.46,0,1,0,2.45,2.46A2.46,2.46,0,0,0,39.92,66.93Z"/></svg>