<svg id="Icons" xmlns="http://www.w3.org/2000/svg" viewBox="0 0 80 80"><title>VW_Icon_Navigation_L</title><path d="M67.36,68.48C65.74,62.74,62.17,53,59,44.41c-.7-1.91-1.38-3.76-2-5.48C53.5,29.24,46.9,13,43.28,4.24A3.57,3.57,0,0,0,40,2h0a3.58,3.58,0,0,0-3.31,2.24c-3.82,9.22-10.69,26-13.79,34.84-.89,2.56-2,5.57-3.12,8.72-2.64,7.29-5.63,15.56-7.1,20.62a3.54,3.54,0,0,0,1.21,3.8,3.45,3.45,0,0,0,3.86.29L40,59.77,62.28,72.54a3.46,3.46,0,0,0,3.86-.28A3.55,3.55,0,0,0,67.36,68.48Zm-3.07,1.41a.42.42,0,0,1-.52,0L40,56.32,16.23,69.9a.42.42,0,0,1-.52,0,.53.53,0,0,1-.18-.6c1.44-5,4.41-13.19,7-20.44,1.14-3.16,2.23-6.18,3.13-8.75C28.9,31,36.36,12.79,39.43,5.39A.57.57,0,0,1,40,5h0a.57.57,0,0,1,.54.38C44.12,14.16,50.7,30.32,54.2,40c.63,1.73,1.3,3.58,2,5.49,3.13,8.55,6.67,18.23,8.26,23.85A.53.53,0,0,1,64.29,69.89Z"/></svg>