<svg id="Icons" xmlns="http://www.w3.org/2000/svg" viewBox="0 0 80 80"><title>VW_Icon_Calender_M</title><path d="M58,17.08V14.51A2.52,2.52,0,0,0,55.48,12h-4A2.52,2.52,0,0,0,49,14.51v2.57H31V14.51A2.52,2.52,0,0,0,28.48,12H24.53A2.53,2.53,0,0,0,22,14.51v2.57H12v40a8,8,0,0,0,8,8h40a8,8,0,0,0,8-8v-40Zm-7-2.57a.53.53,0,0,1,.52-.52h4a.53.53,0,0,1,.52.52v7a.53.53,0,0,1-.52.52h-4A.53.53,0,0,1,51,21.5ZM24.53,14h3.95a.53.53,0,0,1,.52.52v7a.53.53,0,0,1-.52.52H24.53a.53.53,0,0,1-.52-.53l0-7A.55.55,0,0,1,24.53,14ZM22,19.08V21.5A2.52,2.52,0,0,0,24.53,24h3.95A2.52,2.52,0,0,0,31,21.5V19.08H49V21.5A2.52,2.52,0,0,0,51.52,24h4A2.52,2.52,0,0,0,58,21.5V19.08h8v9H14v-9ZM59.94,63H20a6,6,0,0,1-6-6V30H66v27A6,6,0,0,1,59.94,63Z"/><path d="M29.22,52.7l5.34-5.15c1.69-1.62,2.91-3.18,2.91-5.56,0-3.45-2.67-5.74-6.2-5.74a8.08,8.08,0,0,0-5.59,2.29l1.16,1.73a6.11,6.11,0,0,1,4.43-1.73A3.37,3.37,0,0,1,34.91,42c0,1.81-1.16,3-2.38,4.26L25.74,53v2H37.66V52.75H29.22Z"/><polygon points="51.54 42.05 49.06 42.05 49.06 48.87 42.75 48.87 42.75 48.81 48.12 36.65 45.61 36.65 40 49.22 40 51.11 49.06 51.11 49.06 54.99 51.54 54.99 51.54 51.11 54.18 51.11 54.18 48.87 51.54 48.87 51.54 42.05"/></svg>