<svg id="Icons" xmlns="http://www.w3.org/2000/svg" viewBox="0 0 80 80"><title>VW_Icon_Calender_L</title><path d="M64,10V7.59a3.5,3.5,0,0,0-3.5-3.5H55.59a3.5,3.5,0,0,0-3.5,3.5V10h-24V7.59a3.5,3.5,0,0,0-3.5-3.5H19.61a3.5,3.5,0,0,0-3.5,3.5V10H4l-.1,53.42A10.66,10.66,0,0,0,14.53,74H65.3A10.66,10.66,0,0,0,76,63.4L76.05,10ZM55.09,7.59a.51.51,0,0,1,.5-.5h4.92a.51.51,0,0,1,.5.5v9a.51.51,0,0,1-.5.5H55.59a.51.51,0,0,1-.5-.5Zm-36,0a.51.51,0,0,1,.5-.5h4.94a.5.5,0,0,1,.5.5v9a.5.5,0,0,1-.5.5H19.61a.51.51,0,0,1-.5-.5Zm-3,5.38v3.61a3.5,3.5,0,0,0,3.5,3.5h4.94a3.5,3.5,0,0,0,3.5-3.5V13h24v3.61a3.5,3.5,0,0,0,3.5,3.5h4.92a3.5,3.5,0,0,0,3.5-3.5V13h9l0,11.92H7L7,13ZM65.3,71H14.53A7.65,7.65,0,0,1,6.88,63.4L7,27.89H73L73,63.39A7.66,7.66,0,0,1,65.3,71Z"/><path d="M25.82,57l7-6.77c2.23-2.13,3.83-4.19,3.83-7.31,0-4.53-3.51-7.55-8.15-7.55a10.55,10.55,0,0,0-7.34,3l1.52,2.26a8,8,0,0,1,5.82-2.26,4.42,4.42,0,0,1,4.78,4.53c0,2.38-1.52,4-3.12,5.6l-8.93,8.9V60H36.92V57.06H25.82Z"/><polygon points="55.17 42.98 51.91 42.98 51.91 51.95 43.62 51.95 43.62 51.88 50.67 35.89 47.37 35.89 40 52.41 40 54.9 51.91 54.9 51.91 60 55.17 60 55.17 54.9 58.65 54.9 58.65 51.95 55.17 51.95 55.17 42.98"/></svg>