<svg id="Icons" xmlns="http://www.w3.org/2000/svg" viewBox="0 0 80 80"><title>VW_Icon_Repeat_S</title><path d="M32.68,41l-1.36,1.46L35.12,46H29.17C25.42,46,23,43.66,23,40s2.42-6,6.17-6H38V32H29.17C24.28,32,21,35.21,21,40s3.28,8,8.17,8h5.95l-3.8,3.52L32.68,53l5.6-5.18a1.1,1.1,0,0,0,.34-.8l0-.51Z"/><path d="M50.83,32H44.88l3.8-3.52L47.32,27l-5.59,5.17a1.14,1.14,0,0,0-.35.81l0,.51L47.32,39l1.36-1.46L44.88,34h5.95C54.58,34,57,36.34,57,40s-2.42,6-6.17,6H42v2h8.83C55.72,48,59,44.79,59,40S55.72,32,50.83,32Z"/></svg>