<svg id="Icons" xmlns="http://www.w3.org/2000/svg" viewBox="0 0 80 80"><title>VW_Icon_Phone_L_Active</title><path d="M66.19,13.75c-.11-.28-.23-.55-.35-.81-1.15-2.36-3.14-4.2-6-6q-2.7-1.71-5.53-3.13c-.25-.13-.48-.23-.72-.33l-.21-.07a4.75,4.75,0,0,0-.49-.17l-.22-.06-.5-.11-.15,0a4.44,4.44,0,0,0-.62,0h-.13a2.63,2.63,0,0,0-.49,0l-.18,0a3.45,3.45,0,0,0-.46.12l-.12,0a3.65,3.65,0,0,0-.53.25l-.13.08a3.19,3.19,0,0,0-.38.26l-.15.12c-.13.12-.27.24-.4.38l-.06.06c-.14.17-.28.35-.41.54a1,1,0,0,0-.11.17c-.1.15-.19.31-.29.48s-.07.12-.1.19c-.12.23-.23.47-.34.73-.78,2-1.54,3.94-2.26,5.93s-1.42,4-2.07,6A3.83,3.83,0,0,0,43,21.71a4.16,4.16,0,0,0,1.53,1.43l6.72,3.8c-1.37,2.53-2.77,5-4.18,7.55Q42.84,42,38.31,49.35c-1.52,2.45-3.05,4.88-4.61,7.3L27,52.84h0a4.88,4.88,0,0,0-.62-.29l-.19-.07a3.66,3.66,0,0,0-.44-.13l-.2,0a2.61,2.61,0,0,0-.48-.05h-.16l-.13,0a3.7,3.7,0,0,0-.57.07l-.25.06a4.43,4.43,0,0,0-.47.17l-.25.12c-.15.08-.31.18-.46.28l-.21.15a4.77,4.77,0,0,0-.63.57h0q-4.38,4.68-8.42,9.62c-1.9,2.32-2,4.47-.28,6.26.13.13.27.27.42.4a7.91,7.91,0,0,0,1,.77c.89.57,1.8,1.11,2.72,1.64s1.86,1,2.81,1.5l1,.48.35.15.62.28.37.14.58.22.4.13.53.17.4.11.51.13.41.08.5.1.4,0,.49.06.42,0,.47,0h0l.44,0h.41l.48-.06.41,0a4.74,4.74,0,0,0,.49-.1,3.14,3.14,0,0,0,.4-.08l.51-.14.39-.11.54-.19.37-.14.58-.25.35-.16.7-.36L34,74.2c.33-.18.65-.37,1-.58a44.4,44.4,0,0,0,6.81-5.27c.45-.42.89-.85,1.33-1.29.88-.88,1.75-1.82,2.63-2.81A78.94,78.94,0,0,0,51,57.62c1.73-2.45,3.46-5.13,5.2-8.07h0a101.62,101.62,0,0,0,7.16-14.27c.25-.63.49-1.25.71-1.87.45-1.23.84-2.44,1.18-3.63A43.79,43.79,0,0,0,67,19.6c0-.38,0-.75,0-1.12A13.15,13.15,0,0,0,66.19,13.75Z"/></svg>