<svg id="Icons" xmlns="http://www.w3.org/2000/svg" viewBox="0 0 80 80"><title>VW_Icon_User_M</title><path d="M67.46,62.23l-2.12-13a7.19,7.19,0,0,0-3.71-5.61l-8.56-3.81-.81,1.82,8.42,3.75a5.2,5.2,0,0,1,2.69,4.18l2.12,13a.54.54,0,0,1-.09.44.44.44,0,0,1-.33.16c-1.47.13-3.63.25-6.12.36l-1.41-8.19-2,.34,1.36,7.94c-5.64.23-12.4.4-16.93.4s-11.21-.17-16.82-.4l1.36-7.94-2-.34-1.41,8.2c-2.54-.12-4.74-.24-6.23-.37A.44.44,0,0,1,14.6,63a.54.54,0,0,1-.09-.44l2.12-13a5.2,5.2,0,0,1,2.65-4.17l8.4-3.77-.82-1.83-8.49,3.82a7.19,7.19,0,0,0-3.71,5.62l-2.12,13a2.54,2.54,0,0,0,.48,2,2.48,2.48,0,0,0,1.75.93c4.79.39,16.84.81,24.23.85h2c7.39,0,19.44-.46,24.23-.85A2.48,2.48,0,0,0,67,64.22,2.54,2.54,0,0,0,67.46,62.23Z"/><path d="M40,40c7,0,12.5-5.71,12.5-13S47,14,40,14,27.5,19.71,27.5,27,33,40,40,40Zm0-24c6,0,10.5,4.73,10.5,11S46,38,40,38,29.5,33.27,29.5,27,34,16,40,16Z"/></svg>