<svg id="Icons" xmlns="http://www.w3.org/2000/svg" viewBox="0 0 80 80"><title>VW_Icon_AC_L_Active</title><path d="M66.8,26.09a6.85,6.85,0,0,0-8,5.5L54,51.79A1.63,1.63,0,0,1,52.39,53h-12a8.69,8.69,0,0,0-5.88,2.53L20.89,69.15,23,71.27h0L27.9,76h0l1.06,1,11.4-11.56A1.85,1.85,0,0,1,41.62,65H56.37A12.06,12.06,0,0,0,68.1,56c1.37-4.77,4.18-17.72,4.77-21.66a7.27,7.27,0,0,0-1.07-5.6A7.24,7.24,0,0,0,66.8,26.09Z"/><circle cx="67.53" cy="14.5" r="8.5"/><path d="M16.59,28.32l1.21-.64a18,18,0,0,1,2.11-1s0-.06,0-.09A11.68,11.68,0,0,0,19,24.7l-.33-.58-.17-.31a12.35,12.35,0,0,1-2-6,13.54,13.54,0,0,1,4-9.19l2.37-2.32,2.07,2.6,1.06,1.32a12.23,12.23,0,0,1,1.36-1.6l2.37-2.32,2.07,2.6,1.06,1.32a12.23,12.23,0,0,1,1.36-1.6l2.37-2.32,2.07,2.6,1.87,2.34,1.57,2-1.66,1.89a3.35,3.35,0,0,0-1.2,2.61,7.35,7.35,0,0,0,1.1,2.23,12.88,12.88,0,0,1,2.36,6.75,13.44,13.44,0,0,1-.1,1.55l.44.17L53.21,11.47l-1-.83A34.32,34.32,0,0,0,29.89,3a34.07,34.07,0,0,0-23,8.32l-1,.86,9.88,15.07Z"/><path d="M20.9,31.3l1.84,2.37a9,9,0,0,0,3.18-7c0-1.57-.92-3.36-1.89-5.14-.74-1.34-1.57-2.59-1.57-3.84a7.47,7.47,0,0,1,1.94-4.6l-1.87-2.34a10.63,10.63,0,0,0-3.07,7c0,1.64.88,3.14,1.84,4.88.74,1.36,1.64,2.79,1.62,3.9A6.26,6.26,0,0,1,20.9,31.3Z"/><path d="M27.76,31.3l1.84,2.37a8.94,8.94,0,0,0,3.18-7c0-1.57-.92-3.36-1.89-5.14-.74-1.34-1.57-2.59-1.57-3.84a7.42,7.42,0,0,1,1.95-4.6l-1.88-2.34a10.63,10.63,0,0,0-3.07,7c0,1.64.88,3.14,1.84,4.88.74,1.36,1.64,2.79,1.62,3.9A6.26,6.26,0,0,1,27.76,31.3Z"/><path d="M34.62,31.3l1.84,2.37a8.94,8.94,0,0,0,3.18-7,10.39,10.39,0,0,0-1.89-5.14C37,20.2,36.18,19,36.18,17.7a7.42,7.42,0,0,1,2-4.6l-1.88-2.34a10.63,10.63,0,0,0-3.07,7c0,1.64.88,3.14,1.84,4.88.74,1.36,1.64,2.79,1.62,3.9A6.26,6.26,0,0,1,34.62,31.3Z"/><path d="M29,49.89H22V37H21v0H11.79v0H11V49.89H4v2.26l9.88,9.21a4.14,4.14,0,0,0,3,1.23h0a4.18,4.18,0,0,0,3-1.23L29,52.12Z"/></svg>