<svg id="Icons" xmlns="http://www.w3.org/2000/svg" viewBox="0 0 80 80"><title>VW_Icon_Media_L_Active</title><path d="M40,3C18.56,3,3,18.56,3,40S18.56,77,40,77,77,61.44,77,40,61.44,3,40,3ZM56.77,43,32.64,57.49a3.82,3.82,0,0,1-3.83,0,3.48,3.48,0,0,1-1.81-3v-29a3.48,3.48,0,0,1,1.81-3,3.78,3.78,0,0,1,3.83.05L56.77,37a3.46,3.46,0,0,1,0,6Z"/><path d="M55.23,39.58,31.09,25.08a.77.77,0,0,0-.4-.12.79.79,0,0,0-.4.11.5.5,0,0,0-.29.43v29a.5.5,0,0,0,.29.43.79.79,0,0,0,.8,0L55.23,40.43a.47.47,0,0,0,0-.85Z"/></svg>