<svg id="Icons" xmlns="http://www.w3.org/2000/svg" viewBox="0 0 80 80"><title>VW_Icon_Fuel_S</title><path d="M57,50.6c0,1.1-.52,2.38-2,2.38s-2-1.28-2-2.38V39a4,4,0,0,0-4-4H47V23.23c0-4.67-4-4.68-5.27-4.68-4.6-.1-9.88-.1-14.46,0-1.3,0-5.27,0-5.27,4.68V60H47V37h2a2,2,0,0,1,2,2V50.6C51,53.18,52.64,55,55,55s4-1.8,4-4.38V37H57ZM45,58H24V23.23c0-1.78.5-2.68,3.3-2.68,4.57-.1,9.82-.1,14.4,0h0c2.77,0,3.28.9,3.28,2.68Z"/><path d="M57.31,18.17l-1.46,1.38A5.53,5.53,0,0,1,57,23.22V25h-.63A3.37,3.37,0,0,0,53,28.37v3.27A3.37,3.37,0,0,0,56.37,35H59V23.22A7.57,7.57,0,0,0,57.31,18.17ZM56.37,33A1.38,1.38,0,0,1,55,31.64V28.37A1.38,1.38,0,0,1,56.37,27H57v6Z"/><path d="M26,37H43V24H26Zm2-11H41v9H28Z"/></svg>