<svg id="Icons" xmlns="http://www.w3.org/2000/svg" viewBox="0 0 80 80"><title>VW_Icon_Phone_L</title><path d="M59.85,6.94q-2.7-1.71-5.53-3.13A6.64,6.64,0,0,0,51.38,3c-1.87,0-3.32,1.18-4.25,3.49q-2.35,5.9-4.33,11.93a3.69,3.69,0,0,0,1.76,4.72l6.72,3.8Q43.06,42.14,33.7,56.65L27,52.84a4.25,4.25,0,0,0-2.09-.6,4.07,4.07,0,0,0-3,1.44q-4.38,4.68-8.42,9.62c-2.34,2.86-1.94,5.45,1.19,7.43,1.79,1.14,3.63,2.18,5.53,3.14A16.52,16.52,0,0,0,27.69,76,13.55,13.55,0,0,0,35,73.62C42.45,69,49.18,61.31,56.15,49.55h0C63.12,37.77,66.56,28.26,67,19.6,67.27,13.47,64.91,10.14,59.85,6.94ZM64,19.46c-.39,8.15-3.7,17.22-10.4,28.53l0,.08h0c-6.7,11.3-13.1,18.61-20.13,23A10.69,10.69,0,0,1,27.69,73a13.64,13.64,0,0,1-6.12-1.81c-1.8-.91-3.58-1.92-5.27-3-.89-.56-1.25-1-1.29-1.32s.14-.86.81-1.68c2.64-3.23,5.43-6.41,8.29-9.47.17-.18.5-.49.78-.49a1.42,1.42,0,0,1,.61.21l2.15,1.22,4.57,2.59,2.46,1.4,1.54-2.39c6.25-9.69,12.2-19.75,17.7-29.9l1.39-2.59-2.55-1.45L46,20.53c-.46-.27-.64-.41-.39-1.18,1.28-3.94,2.72-7.89,4.27-11.74C50.57,6,51.18,6,51.38,6A3.92,3.92,0,0,1,53,6.48c1.79.91,3.57,1.92,5.28,3C62.81,12.36,64.2,14.79,64,19.46Z"/></svg>